<svg xmlns="http://www.w3.org/2000/svg" viewBox="0 0 159.34 129.33"><defs><style>.cls-1{fill:#e1ad3d;}.cls-2{fill:#f4cc6a;}.cls-3{fill:#c68f30;}</style></defs><title>Certificate</title><g id="Layer_2" data-name="Layer 2"><g id="OBJECTS"><path class="cls-1" d="M4.39,129.33A4.39,4.39,0,0,1,0,124.94V4.39A4.39,4.39,0,0,1,4.39,0H155a4.39,4.39,0,0,1,4.39,4.39V124.94a4.39,4.39,0,0,1-4.39,4.39Z"/><path class="cls-2" d="M138.29,118.28H21a10,10,0,0,0-10-10V21A10,10,0,0,0,21,11H138.29a10,10,0,0,0,10,10v87.23A10,10,0,0,0,138.29,118.28Z"/><path class="cls-3" d="M106.06,70.19,106,112.07l9.21-9.17,9.18,9.2.06-41.88Z"/><polygon class="cls-2" points="123.36 81.92 123.33 109.53 115.21 101.39 107.07 109.5 107.11 81.9 108.21 81.91 108.17 106.85 115.21 99.83 122.23 106.87 122.26 81.92 123.36 81.92"/><path class="cls-3" d="M98.24,65.09a3.7,3.7,0,0,1-1.17,2.63q-.4.37-.79.77l-.44.45A3.78,3.78,0,0,0,95.1,73q.25.57.53,1.1a3.65,3.65,0,0,1,.09,3.18l-.17.41a3.73,3.73,0,0,0,1.4,4.53l.16.1a3.73,3.73,0,0,1,1.71,3v0A3.72,3.72,0,0,0,102,88.85l.21,0a3.68,3.68,0,0,1,2.77,2L105,91A3.74,3.74,0,0,0,109.26,93l.18,0a3.68,3.68,0,0,1,3.32.77l.16.14a3.72,3.72,0,0,0,4.7.08l0,0a3.73,3.73,0,0,1,3.36-.67l.18,0a3.73,3.73,0,0,0,4.34-1.92l.17-.35a3.72,3.72,0,0,1,2.5-2.07q.56-.13,1.12-.3a3.76,3.76,0,0,0,2.59-3.25q.1-1,.11-2a3.78,3.78,0,0,1,1.2-2.69q.72-.67,1.38-1.39a3.76,3.76,0,0,0,.7-4.1q-.25-.54-.52-1a3.72,3.72,0,0,1-.13-3.24l.15-.37a3.73,3.73,0,0,0-1.46-4.51l-.15-.1a3.73,3.73,0,0,1-1.74-3V63a3.72,3.72,0,0,0-3.2-3.45l-.21,0a3.68,3.68,0,0,1-2.79-2l-.09-.17a3.74,3.74,0,0,0-4.24-1.87l-.18,0a3.68,3.68,0,0,1-3.33-.73l-.16-.14a3.72,3.72,0,0,0-4.7,0l0,0a3.73,3.73,0,0,1-3.36.71l-.18,0a3.73,3.73,0,0,0-4.31,2l-.19.4a3.65,3.65,0,0,1-2.43,2.06q-.58.14-1.17.33a3.78,3.78,0,0,0-2.54,3.28q0,.31,0,.63Q98.25,64.55,98.24,65.09Z"/><path class="cls-2" d="M123.36,63.43a1.94,1.94,0,0,0,1.3-.91,1.94,1.94,0,0,0-2.85.55A1.94,1.94,0,0,0,123.36,63.43Z"/><path class="cls-2" d="M123.75,61.21a1.94,1.94,0,0,0,.91,1.3,1.94,1.94,0,0,0-.55-2.85A1.94,1.94,0,0,0,123.75,61.21Z"/><path class="cls-2" d="M106,87.51a1.94,1.94,0,0,1,.36-1.55,1.94,1.94,0,0,1,.55,2.85A1.94,1.94,0,0,1,106,87.51Z"/><path class="cls-2" d="M107.9,86.32a1.94,1.94,0,0,1-1.55-.36,1.94,1.94,0,0,1,2.85-.55A1.94,1.94,0,0,1,107.9,86.32Z"/><path class="cls-2" d="M125.11,65a1.94,1.94,0,0,0,1.44-.67,1.94,1.94,0,0,0-2.9,0A1.94,1.94,0,0,0,125.11,65Z"/><path class="cls-2" d="M125.88,62.84a1.94,1.94,0,0,0,.67,1.44,1.94,1.94,0,0,0,0-2.9A1.94,1.94,0,0,0,125.88,62.84Z"/><path class="cls-2" d="M103.83,85.66a1.94,1.94,0,0,1,.63-1.46,1.94,1.94,0,0,1,0,2.9A1.94,1.94,0,0,1,103.83,85.66Z"/><path class="cls-2" d="M105.93,84.82a1.94,1.94,0,0,1-1.46-.63,1.94,1.94,0,0,1,2.9,0A1.94,1.94,0,0,1,105.93,84.82Z"/><path class="cls-2" d="M126.57,66.76a1.94,1.94,0,0,0,1.53-.41,1.94,1.94,0,0,0-2.86-.46A1.94,1.94,0,0,0,126.57,66.76Z"/><path class="cls-2" d="M127.7,64.81a1.94,1.94,0,0,0,.41,1.53,1.94,1.94,0,0,0,.46-2.86A1.94,1.94,0,0,0,127.7,64.81Z"/><path class="cls-2" d="M102,83.46a1.94,1.94,0,0,1,.87-1.33,1.94,1.94,0,0,1-.46,2.86A1.94,1.94,0,0,1,102,83.46Z"/><path class="cls-2" d="M104.24,83a1.94,1.94,0,0,1-1.33-.87,1.94,1.94,0,0,1,2.86.46A1.94,1.94,0,0,1,104.24,83Z"/><path class="cls-2" d="M127.7,68.79a1.94,1.94,0,0,0,1.58-.14,1.94,1.94,0,0,0-2.74-.95A1.94,1.94,0,0,0,127.7,68.79Z"/><path class="cls-2" d="M129.15,67.06a1.94,1.94,0,0,0,.14,1.58,1.94,1.94,0,0,0,.95-2.74A1.94,1.94,0,0,0,129.15,67.06Z"/><path class="cls-2" d="M100.64,81a1.94,1.94,0,0,1,1.09-1.16,1.94,1.94,0,0,1-.95,2.74A1.94,1.94,0,0,1,100.64,81Z"/><path class="cls-2" d="M102.89,80.91a1.94,1.94,0,0,1-1.16-1.09,1.94,1.94,0,0,1,2.74.95A1.94,1.94,0,0,1,102.89,80.91Z"/><path class="cls-2" d="M128.46,71a1.94,1.94,0,0,0,1.58.14,1.94,1.94,0,0,0-2.53-1.41A1.94,1.94,0,0,0,128.46,71Z"/><path class="cls-2" d="M130.18,69.54a1.94,1.94,0,0,0-.14,1.58,1.94,1.94,0,0,0,1.41-2.53A1.94,1.94,0,0,0,130.18,69.54Z"/><path class="cls-2" d="M99.7,78.3a1.94,1.94,0,0,1,1.27-1,1.94,1.94,0,0,1-1.41,2.53A1.94,1.94,0,0,1,99.7,78.3Z"/><path class="cls-2" d="M101.93,78.62a1.94,1.94,0,0,1-1-1.27,1.94,1.94,0,0,1,2.53,1.41A1.94,1.94,0,0,1,101.93,78.62Z"/><path class="cls-2" d="M128.82,73.29a1.94,1.94,0,0,0,1.54.41,1.94,1.94,0,0,0-2.25-1.83A1.94,1.94,0,0,0,128.82,73.29Z"/><path class="cls-2" d="M130.77,72.17a1.94,1.94,0,0,0-.41,1.54,1.94,1.94,0,0,0,1.83-2.25A1.94,1.94,0,0,0,130.77,72.17Z"/><path class="cls-2" d="M99.24,75.49a1.94,1.94,0,0,1,1.42-.72A1.94,1.94,0,0,1,98.83,77,1.94,1.94,0,0,1,99.24,75.49Z"/><path class="cls-2" d="M101.38,76.19a1.94,1.94,0,0,1-.72-1.42,1.94,1.94,0,0,1,2.25,1.83A1.94,1.94,0,0,1,101.38,76.19Z"/><path class="cls-2" d="M128.78,75.63a1.94,1.94,0,0,0,1.44.67,1.94,1.94,0,0,0-1.9-2.19A1.94,1.94,0,0,0,128.78,75.63Z"/><path class="cls-2" d="M130.9,74.85a1.94,1.94,0,0,0-.67,1.44,1.94,1.94,0,0,0,2.19-1.9A1.94,1.94,0,0,0,130.9,74.85Z"/><path class="cls-2" d="M99.27,72.64a1.94,1.94,0,0,1,1.52-.46,1.94,1.94,0,0,1-2.19,1.9A1.94,1.94,0,0,1,99.27,72.64Z"/><path class="cls-2" d="M101.26,73.7a1.94,1.94,0,0,1-.46-1.52,1.94,1.94,0,0,1,1.9,2.19A1.94,1.94,0,0,1,101.26,73.7Z"/><path class="cls-2" d="M128.34,77.92a1.94,1.94,0,0,0,1.3.91,1.94,1.94,0,0,0-1.49-2.49A1.94,1.94,0,0,0,128.34,77.92Z"/><path class="cls-2" d="M130.55,77.53a1.94,1.94,0,0,0-.91,1.3,1.94,1.94,0,0,0,2.49-1.49A1.94,1.94,0,0,0,130.55,77.53Z"/><path class="cls-2" d="M99.8,69.83a1.94,1.94,0,0,1,1.58-.19,1.94,1.94,0,0,1-2.49,1.49A1.94,1.94,0,0,1,99.8,69.83Z"/><path class="cls-2" d="M101.57,71.22a1.94,1.94,0,0,1-.19-1.58,1.94,1.94,0,0,1,1.49,2.49A1.94,1.94,0,0,1,101.57,71.22Z"/><path class="cls-2" d="M127.5,80.1a1.94,1.94,0,0,0,1.13,1.12,1.94,1.94,0,0,0-1-2.71A1.94,1.94,0,0,0,127.5,80.1Z"/><path class="cls-2" d="M129.76,80.1a1.94,1.94,0,0,0-1.12,1.12,1.94,1.94,0,0,0,2.71-1A1.94,1.94,0,0,0,129.76,80.1Z"/><path class="cls-2" d="M100.8,67.16a1.94,1.94,0,0,1,1.59.09,1.94,1.94,0,0,1-2.71,1A1.94,1.94,0,0,1,100.8,67.16Z"/><path class="cls-2" d="M102.3,68.84a1.94,1.94,0,0,1,.09-1.59,1.94,1.94,0,0,1,1,2.71A1.94,1.94,0,0,1,102.3,68.84Z"/><path class="cls-2" d="M126.31,82.09a1.94,1.94,0,0,0,.91,1.3,1.94,1.94,0,0,0-.55-2.85A1.94,1.94,0,0,0,126.31,82.09Z"/><path class="cls-2" d="M128.53,82.48a1.94,1.94,0,0,0-1.3.91,1.94,1.94,0,0,0,2.85-.55A1.94,1.94,0,0,0,128.53,82.48Z"/><path class="cls-2" d="M102.24,64.72a1.94,1.94,0,0,1,1.55.36,1.94,1.94,0,0,1-2.85.55A1.94,1.94,0,0,1,102.24,64.72Z"/><path class="cls-2" d="M103.43,66.63a1.94,1.94,0,0,1,.36-1.55,1.94,1.94,0,0,1,.55,2.85A1.94,1.94,0,0,1,103.43,66.63Z"/><path class="cls-2" d="M124.79,83.84a1.94,1.94,0,0,0,.67,1.44,1.94,1.94,0,0,0,0-2.9A1.94,1.94,0,0,0,124.79,83.84Z"/><path class="cls-2" d="M126.91,84.61a1.94,1.94,0,0,0-1.44.67,1.94,1.94,0,0,0,2.9,0A1.94,1.94,0,0,0,126.91,84.61Z"/><path class="cls-2" d="M104.09,62.56a1.94,1.94,0,0,1,1.46.63,1.94,1.94,0,0,1-2.9,0A1.94,1.94,0,0,1,104.09,62.56Z"/><path class="cls-2" d="M104.92,64.65a1.94,1.94,0,0,1,.63-1.46,1.94,1.94,0,0,1,0,2.9A1.94,1.94,0,0,1,104.92,64.65Z"/><path class="cls-2" d="M123,85.3a1.94,1.94,0,0,0,.41,1.53,1.94,1.94,0,0,0,.46-2.86A1.94,1.94,0,0,0,123,85.3Z"/><path class="cls-2" d="M124.94,86.43a1.94,1.94,0,0,0-1.53.41,1.94,1.94,0,0,0,2.86.46A1.94,1.94,0,0,0,124.94,86.43Z"/><path class="cls-2" d="M106.28,60.76a1.94,1.94,0,0,1,1.33.87,1.94,1.94,0,0,1-2.86-.46A1.94,1.94,0,0,1,106.28,60.76Z"/><path class="cls-2" d="M106.74,63a1.94,1.94,0,0,1,.87-1.33,1.94,1.94,0,0,1-.46,2.86A1.94,1.94,0,0,1,106.74,63Z"/><path class="cls-2" d="M121,86.43A1.94,1.94,0,0,0,121.1,88a1.94,1.94,0,0,0,.95-2.74A1.94,1.94,0,0,0,121,86.43Z"/><path class="cls-2" d="M122.68,87.88a1.94,1.94,0,0,0-1.58.14,1.94,1.94,0,0,0,2.74.95A1.94,1.94,0,0,0,122.68,87.88Z"/><path class="cls-2" d="M108.76,59.37a1.94,1.94,0,0,1,1.16,1.09,1.94,1.94,0,0,1-2.74-.95A1.94,1.94,0,0,1,108.76,59.37Z"/><path class="cls-2" d="M108.83,61.62a1.94,1.94,0,0,1,1.09-1.16A1.94,1.94,0,0,1,109,63.2,1.94,1.94,0,0,1,108.83,61.62Z"/><path class="cls-2" d="M118.76,87.18a1.94,1.94,0,0,0-.14,1.58A1.94,1.94,0,0,0,120,86.23,1.94,1.94,0,0,0,118.76,87.18Z"/><path class="cls-2" d="M120.2,88.91a1.94,1.94,0,0,0-1.58-.14,1.94,1.94,0,0,0,2.53,1.41A1.94,1.94,0,0,0,120.2,88.91Z"/><path class="cls-2" d="M111.45,58.43a1.94,1.94,0,0,1,1,1.27,1.94,1.94,0,0,1-2.53-1.41A1.94,1.94,0,0,1,111.45,58.43Z"/><path class="cls-2" d="M111.13,60.66a1.94,1.94,0,0,1,1.27-1A1.94,1.94,0,0,1,111,62.24,1.94,1.94,0,0,1,111.13,60.66Z"/><path class="cls-2" d="M116.45,87.55a1.94,1.94,0,0,0-.41,1.54,1.94,1.94,0,0,0,1.83-2.25A1.94,1.94,0,0,0,116.45,87.55Z"/><path class="cls-2" d="M117.58,89.5a1.94,1.94,0,0,0-1.54-.41,1.94,1.94,0,0,0,2.25,1.83A1.94,1.94,0,0,0,117.58,89.5Z"/><path class="cls-2" d="M114.26,58a1.94,1.94,0,0,1,.72,1.42,1.94,1.94,0,0,1-2.25-1.83A1.94,1.94,0,0,1,114.26,58Z"/><path class="cls-2" d="M113.56,60.11a1.94,1.94,0,0,1,1.42-.72,1.94,1.94,0,0,1-1.83,2.25A1.94,1.94,0,0,1,113.56,60.11Z"/><path class="cls-2" d="M114.12,87.51a1.94,1.94,0,0,0-.67,1.44,1.94,1.94,0,0,0,2.19-1.9A1.94,1.94,0,0,0,114.12,87.51Z"/><path class="cls-2" d="M114.89,89.62a1.94,1.94,0,0,0-1.44-.67,1.94,1.94,0,0,0,1.9,2.19A1.94,1.94,0,0,0,114.89,89.62Z"/><path class="cls-2" d="M117.11,58a1.94,1.94,0,0,1,.46,1.52,1.94,1.94,0,0,1-1.9-2.19A1.94,1.94,0,0,1,117.11,58Z"/><path class="cls-2" d="M116,60a1.94,1.94,0,0,1,1.52-.46,1.94,1.94,0,0,1-2.19,1.9A1.94,1.94,0,0,1,116,60Z"/><path class="cls-2" d="M111.83,87.06a1.94,1.94,0,0,0-.91,1.3,1.94,1.94,0,0,0,2.49-1.49A1.94,1.94,0,0,0,111.83,87.06Z"/><path class="cls-2" d="M112.22,89.28a1.94,1.94,0,0,0-1.3-.91,1.94,1.94,0,0,0,1.49,2.49A1.94,1.94,0,0,0,112.22,89.28Z"/><path class="cls-2" d="M119.91,58.52a1.94,1.94,0,0,1,.19,1.58,1.94,1.94,0,0,1-1.49-2.49A1.94,1.94,0,0,1,119.91,58.52Z"/><path class="cls-2" d="M118.52,60.3a1.94,1.94,0,0,1,1.58-.19,1.94,1.94,0,0,1-2.49,1.49A1.94,1.94,0,0,1,118.52,60.3Z"/><path class="cls-2" d="M109.65,86.23a1.94,1.94,0,0,0-1.12,1.13,1.94,1.94,0,0,0,2.71-1A1.94,1.94,0,0,0,109.65,86.23Z"/><path class="cls-2" d="M109.65,88.48a1.94,1.94,0,0,0-1.12-1.12,1.94,1.94,0,0,0,1,2.71A1.94,1.94,0,0,0,109.65,88.48Z"/><path class="cls-2" d="M122.59,59.53a1.94,1.94,0,0,1-.09,1.59,1.94,1.94,0,0,1-1-2.71A1.94,1.94,0,0,1,122.59,59.53Z"/><path class="cls-2" d="M120.91,61a1.94,1.94,0,0,1,1.59.09,1.94,1.94,0,0,1-2.71,1A1.94,1.94,0,0,1,120.91,61Z"/><path class="cls-2" d="M110,68.77a9.77,9.77,0,0,0,4.08-3.05h4.15V78.91h2.17V82h-9.32v-3.1h2.33V70.26l-2.33,1.1Z"/><rect class="cls-3" x="40.88" y="23.78" width="77.57" height="9.37"/><rect class="cls-3" x="57.84" y="37.71" width="43.66" height="5.27"/><rect class="cls-3" x="28.8" y="61.68" width="53.73" height="5.27"/><rect class="cls-3" x="28.8" y="88.62" width="53.73" height="5.27"/><rect class="cls-3" x="28.8" y="75.15" width="53.73" height="5.27"/></g></g></svg>