<svg xmlns="http://www.w3.org/2000/svg" xmlns:xlink="http://www.w3.org/1999/xlink" viewBox="0 0 294.27 413.89"><defs><style>.cls-1{isolation:isolate;}.cls-2,.cls-34,.cls-43,.cls-48,.cls-50,.cls-9{fill:none;}.cls-2,.cls-43,.cls-49{stroke:#fff;}.cls-2,.cls-43,.cls-48,.cls-49,.cls-9{stroke-miterlimit:10;}.cls-2,.cls-34,.cls-50{stroke-width:2px;}.cls-3{fill:#ffcba4;}.cls-4{fill:#eab588;}.cls-12,.cls-16,.cls-20,.cls-22,.cls-25,.cls-40,.cls-5,.cls-6{mix-blend-mode:multiply;}.cls-5{fill:url(#linear-gradient);}.cls-6{fill:url(#linear-gradient-2);}.cls-7{fill:#eceff1;}.cls-45,.cls-49,.cls-8{fill:#fff;}.cls-9{stroke:#0f294c;stroke-width:1.5px;}.cls-34,.cls-43,.cls-48,.cls-50,.cls-9{stroke-linecap:round;}.cls-10{fill:#d81b61;}.cls-11{fill:#f06392;}.cls-12{opacity:0.5;fill:url(#linear-gradient-3);}.cls-13{fill:#ec407a;}.cls-14{fill:#faa629;}.cls-15{fill:#f78c1f;}.cls-16{fill:url(#linear-gradient-4);}.cls-17{fill:#fcb64e;}.cls-18{fill:#229795;}.cls-19{fill:#6fc9c5;}.cls-20{fill:url(#linear-gradient-5);}.cls-21{fill:#56bab3;}.cls-22{fill:url(#linear-gradient-6);}.cls-23{fill:#e5e5e5;}.cls-24{fill:#78909c;}.cls-25{fill:url(#linear-gradient-7);}.cls-26{fill:#d38d59;}.cls-27{fill:#bec8cc;}.cls-28{fill:#3f6570;}.cls-29{fill:#2e3333;}.cls-30{fill:#414849;}.cls-31{fill:#d0d2d3;}.cls-32{fill:#7986cb;}.cls-33{fill:#3949ab;}.cls-34{stroke:#b3e5fc;}.cls-34,.cls-50{stroke-linejoin:round;}.cls-35{fill:#ffe0b2;}.cls-36{fill:#863d11;}.cls-37{fill:#9d5b36;}.cls-38{fill:#3e2723;}.cls-39{fill:#378f43;}.cls-40{fill:url(#linear-gradient-8);}.cls-41{fill:#346a34;}.cls-42{fill:#fdd836;}.cls-43{stroke-dasharray:5.08 5.08;}.cls-44{fill:#37474f;}.cls-45{opacity:0.8;}.cls-46{fill:#fff9c4;opacity:0.67;mix-blend-mode:hard-light;}.cls-47{fill:#ffc34c;}.cls-48{stroke:#37474f;}.cls-49{stroke-width:0.75px;}.cls-50{stroke:#f06392;}</style><linearGradient id="linear-gradient" x1="258.07" y1="241.52" x2="291.6" y2="241.52" gradientUnits="userSpaceOnUse"><stop offset="0" stop-color="#ad68a4"/><stop offset="0.11" stop-color="#b170a9" stop-opacity="0.95"/><stop offset="0.3" stop-color="#bd86b6" stop-opacity="0.8"/><stop offset="0.54" stop-color="#d0a9cb" stop-opacity="0.57"/><stop offset="0.81" stop-color="#ebdae9" stop-opacity="0.25"/><stop offset="1" stop-color="#fff" stop-opacity="0"/></linearGradient><linearGradient id="linear-gradient-2" x1="78.13" y1="165.73" x2="137.66" y2="165.73" xlink:href="#linear-gradient"/><linearGradient id="linear-gradient-3" x1="79.39" y1="117.38" x2="106.58" y2="153.52" gradientUnits="userSpaceOnUse"><stop offset="0" stop-color="#fff" stop-opacity="0"/><stop offset="0.17" stop-color="#ecdae1" stop-opacity="0.22"/><stop offset="0.45" stop-color="#cfa3b4" stop-opacity="0.56"/><stop offset="0.69" stop-color="#ba7c93" stop-opacity="0.8"/><stop offset="0.88" stop-color="#ad637f" stop-opacity="0.95"/><stop offset="1" stop-color="#a85a78"/></linearGradient><linearGradient id="linear-gradient-4" x1="98.58" y1="137.52" x2="120.65" y2="149.36" gradientUnits="userSpaceOnUse"><stop offset="0" stop-color="#fff" stop-opacity="0"/><stop offset="0.15" stop-color="#feeed6" stop-opacity="0.19"/><stop offset="0.38" stop-color="#fdd599" stop-opacity="0.47"/><stop offset="0.59" stop-color="#fbc169" stop-opacity="0.7"/><stop offset="0.77" stop-color="#fbb246" stop-opacity="0.86"/><stop offset="0.91" stop-color="#faa931" stop-opacity="0.96"/><stop offset="1" stop-color="#faa629"/></linearGradient><linearGradient id="linear-gradient-5" x1="102.26" y1="157.78" x2="131.9" y2="157.78" gradientUnits="userSpaceOnUse"><stop offset="0" stop-color="#fff" stop-opacity="0"/><stop offset="0.2" stop-color="#cee9ea" stop-opacity="0.26"/><stop offset="0.47" stop-color="#93ced2" stop-opacity="0.58"/><stop offset="0.71" stop-color="#68bbc0" stop-opacity="0.81"/><stop offset="0.89" stop-color="#4eafb5" stop-opacity="0.95"/><stop offset="1" stop-color="#44abb1"/></linearGradient><linearGradient id="linear-gradient-6" x1="133.58" y1="237.65" x2="179.84" y2="146.33" xlink:href="#linear-gradient"/><linearGradient id="linear-gradient-7" x1="195.68" y1="269.1" x2="241.93" y2="177.79" xlink:href="#linear-gradient"/><linearGradient id="linear-gradient-8" x1="251.73" y1="205.61" x2="268.42" y2="231.73" gradientUnits="userSpaceOnUse"><stop offset="0" stop-color="#fff" stop-opacity="0"/><stop offset="0.07" stop-color="#edf5ee" stop-opacity="0.09"/><stop offset="0.38" stop-color="#9fc9a5" stop-opacity="0.48"/><stop offset="0.66" stop-color="#67aa70" stop-opacity="0.76"/><stop offset="0.87" stop-color="#44964f" stop-opacity="0.94"/><stop offset="1" stop-color="#378f43"/></linearGradient></defs><title>PC Table</title><g class="cls-1"><g id="Layer_2" data-name="Layer 2"><g id="objects"><g id="_Group_" data-name="&lt;Group&gt;"><path id="_Path_" data-name="&lt;Path&gt;" class="cls-2" d="M272.48,149.74c0,1.06-.75,1.49-1.67,1a3.69,3.69,0,0,1-1.67-2.89c0-1.06.75-1.49,1.67-1A3.69,3.69,0,0,1,272.48,149.74Z"/><path id="_Path_2" data-name="&lt;Path&gt;" class="cls-2" d="M136.56,31.64c0,1.06-.75,1.49-1.67,1a3.69,3.69,0,0,1-1.67-2.89c0-1.06.75-1.49,1.67-1A3.69,3.69,0,0,1,136.56,31.64Z"/><path id="_Path_3" data-name="&lt;Path&gt;" class="cls-2" d="M293.27,110.32c0,1.06-.75,1.49-1.67,1a3.69,3.69,0,0,1-1.67-2.89c0-1.06.75-1.49,1.67-1A3.69,3.69,0,0,1,293.27,110.32Z"/><path id="_Path_4" data-name="&lt;Path&gt;" class="cls-2" d="M147.38,15.42c0,1.06-.75,1.49-1.67,1A3.69,3.69,0,0,1,144,13.5c0-1.06.75-1.49,1.67-1A3.69,3.69,0,0,1,147.38,15.42Z"/><path id="_Path_5" data-name="&lt;Path&gt;" class="cls-2" d="M204.47,79.82c0,1.06-.75,1.49-1.67,1a3.69,3.69,0,0,1-1.67-2.89c0-1.06.75-1.49,1.67-1A3.69,3.69,0,0,1,204.47,79.82Z"/><path id="_Path_6" data-name="&lt;Path&gt;" class="cls-2" d="M262.76,174.66c0,1.06-.75,1.49-1.67,1a3.69,3.69,0,0,1-1.67-2.89c0-1.06.75-1.49,1.67-1A3.69,3.69,0,0,1,262.76,174.66Z"/><path id="_Path_7" data-name="&lt;Path&gt;" class="cls-2" d="M88.25,40.73c0,1.06-.75,1.49-1.67,1a3.69,3.69,0,0,1-1.67-2.89c0-1.06.75-1.49,1.67-1A3.69,3.69,0,0,1,88.25,40.73Z"/><path id="_Path_8" data-name="&lt;Path&gt;" class="cls-2" d="M287.72,144.18c0,3.6-2.53,5.06-5.64,3.26a12.47,12.47,0,0,1-5.64-9.77c0-3.6,2.53-5.06,5.64-3.26A12.47,12.47,0,0,1,287.72,144.18Z"/><path id="_Path_9" data-name="&lt;Path&gt;" class="cls-2" d="M84.79,58.85c0,3.6-2.53,5.06-5.64,3.26a12.47,12.47,0,0,1-5.64-9.77c0-3.6,2.53-5.06,5.64-3.26A12.47,12.47,0,0,1,84.79,58.85Z"/><polygon id="_Path_10" data-name="&lt;Path&gt;" class="cls-3" points="278.1 354.79 284.85 358.68 284.85 259.02 278.1 255.13 278.1 354.79"/><polygon id="_Path_11" data-name="&lt;Path&gt;" class="cls-4" points="189.51 305.1 0 195.69 102.09 136.75 291.6 246.16 189.51 305.1"/><polygon id="_Path_12" data-name="&lt;Path&gt;" class="cls-5" points="258.07 250.49 283.61 250.49 291.6 246.16 268.02 232.54 258.07 250.49"/><polygon id="_Path_13" data-name="&lt;Path&gt;" class="cls-6" points="78.13 167.82 97.85 167.82 102.26 181.53 137.66 181.53 137.66 163.4 99.61 149.94 78.13 167.82"/><g id="_Group_2" data-name="&lt;Group&gt;"><polygon id="_Path_14" data-name="&lt;Path&gt;" class="cls-7" points="205.95 290.97 171.74 271.22 216.97 245.1 251.18 264.86 205.95 290.97"/><polygon id="_Path_15" data-name="&lt;Path&gt;" class="cls-8" points="207.1 285.72 172.88 265.96 218.11 239.85 252.32 259.6 207.1 285.72"/><g id="_Group_3" data-name="&lt;Group&gt;"><line id="_Path_16" data-name="&lt;Path&gt;" class="cls-9" x1="216.65" y1="244.98" x2="241.74" y2="259.47"/><line id="_Path_17" data-name="&lt;Path&gt;" class="cls-9" x1="212.6" y1="247.87" x2="237.69" y2="262.36"/><line id="_Path_18" data-name="&lt;Path&gt;" class="cls-9" x1="208.56" y1="250.77" x2="233.65" y2="265.25"/><line id="_Path_19" data-name="&lt;Path&gt;" class="cls-9" x1="204.51" y1="253.66" x2="229.6" y2="268.15"/></g></g><g id="_Group_4" data-name="&lt;Group&gt;"><polygon id="_Path_20" data-name="&lt;Path&gt;" class="cls-10" points="100.26 146.26 70.41 163.4 70.41 116 100.26 98.86 100.26 146.26"/><polygon id="_Path_21" data-name="&lt;Path&gt;" class="cls-11" points="78.13 167.82 69.43 162.79 69.43 115.34 78.13 120.36 78.13 167.82"/><polygon id="_Path_22" data-name="&lt;Path&gt;" class="cls-10" points="107.98 150.68 78.13 167.82 78.13 120.42 107.98 103.28 107.98 150.68"/><polygon id="_Path_23" data-name="&lt;Path&gt;" class="cls-12" points="107.98 150.68 78.13 167.82 78.13 120.42 107.98 103.28 107.98 150.68"/><polygon id="_Path_24" data-name="&lt;Path&gt;" class="cls-13" points="107.98 103.25 107.01 102.68 78.13 119.21 71.47 115.38 100.26 98.86 99.28 98.29 70.45 114.79 70.44 114.79 69.43 115.37 70.41 116 70.46 115.97 78.13 120.42 79.18 119.81 79.15 119.8 107.98 103.25"/><polygon id="_Path_25" data-name="&lt;Path&gt;" class="cls-8" points="73.45 116.52 100.26 101.14 104.99 103.84 78.13 119.21 73.45 116.52"/></g><g id="_Group_5" data-name="&lt;Group&gt;"><polygon id="_Path_26" data-name="&lt;Path&gt;" class="cls-14" points="114.29 154.26 91.4 167.41 91.4 124.81 114.29 111.66 114.29 154.26"/><polygon id="_Path_27" data-name="&lt;Path&gt;" class="cls-15" points="99.13 171.83 90.43 166.81 90.43 124.15 99.13 129.18 99.13 171.83"/><polygon id="_Path_28" data-name="&lt;Path&gt;" class="cls-14" points="122.02 158.68 99.13 171.83 99.13 129.23 122.02 116.08 122.02 158.68"/><polygon id="_Path_29" data-name="&lt;Path&gt;" class="cls-16" points="122.02 158.68 99.13 171.83 99.13 129.23 122.02 116.08 122.02 158.68"/><polygon id="_Path_30" data-name="&lt;Path&gt;" class="cls-17" points="122.02 116.05 121.05 115.48 99.12 128.02 92.47 124.19 114.3 111.66 113.32 111.09 91.44 123.6 91.44 123.6 90.43 124.19 91.4 124.81 91.46 124.78 99.13 129.23 100.18 128.63 100.15 128.61 122.02 116.05"/><polygon id="_Path_31" data-name="&lt;Path&gt;" class="cls-8" points="94.45 125.33 114.29 113.94 119.03 116.64 99.12 128.02 94.45 125.33"/></g><g id="_Group_6" data-name="&lt;Group&gt;"><polygon id="_Path_32" data-name="&lt;Path&gt;" class="cls-18" points="124.18 159.99 94.53 177.11 94.53 146.73 124.18 129.62 124.18 159.99"/><polygon id="_Path_33" data-name="&lt;Path&gt;" class="cls-19" points="102.26 181.53 93.56 176.5 93.56 146.07 102.26 151.09 102.26 181.53"/><polygon id="_Path_34" data-name="&lt;Path&gt;" class="cls-18" points="131.9 164.41 102.26 181.53 102.26 151.15 131.9 134.03 131.9 164.41"/><polygon id="_Path_35" data-name="&lt;Path&gt;" class="cls-20" points="131.9 164.41 102.26 181.53 102.26 151.15 131.9 134.03 131.9 164.41"/><polygon id="_Path_36" data-name="&lt;Path&gt;" class="cls-21" points="131.9 134 130.93 133.44 102.25 149.94 95.6 146.11 124.18 129.62 123.2 129.05 94.58 145.52 94.57 145.52 93.56 146.1 94.53 146.73 94.58 146.7 102.26 151.15 103.31 150.54 103.28 150.53 131.9 134"/><polygon id="_Path_37" data-name="&lt;Path&gt;" class="cls-8" points="97.58 147.25 124.18 131.9 128.91 134.6 102.25 149.94 97.58 147.25"/></g><path id="_Path_38" data-name="&lt;Path&gt;" class="cls-22" d="M157,195.59l-32.18-18.47a1.63,1.63,0,0,1-.19-2.7l9.42-7.31,56.32,39.81Z"/><g id="_Group_7" data-name="&lt;Group&gt;"><path id="_Path_39" data-name="&lt;Path&gt;" class="cls-8" d="M195.43,241.54l-8.14-4.73a7.51,7.51,0,0,0-6.42-.54l-8.44,3.18a13.58,13.58,0,0,0-8.8,12.76,2.51,2.51,0,0,0,1.25,2.16l9.93,5.77a2.85,2.85,0,0,0,2.86,0l.61-.35-2-1.39A13.57,13.57,0,0,1,185,246.78l9.75-3.67,2,1.61v-.78A2.78,2.78,0,0,0,195.43,241.54Z"/><path id="_Path_40" data-name="&lt;Path&gt;" class="cls-23" d="M185,246.78,195.1,243a1.27,1.27,0,0,1,1.72,1.19v3.67a2.13,2.13,0,0,1-1.06,1.85l-18.27,10.55a.84.84,0,0,1-1.25-.72h0a13.58,13.58,0,0,1,3.56-9.2h0A13.58,13.58,0,0,1,185,246.78Z"/><polygon id="_Path_41" data-name="&lt;Path&gt;" class="cls-24" points="189.53 238.11 179.54 241.03 179.99 241.31 189.99 238.38 189.53 238.11"/><path id="_Path_42" data-name="&lt;Path&gt;" class="cls-24" d="M186,237.89l-4.69,1.35a.79.79,0,0,0-.56.61h0a.79.79,0,0,0,.38.84l.7.4a.79.79,0,0,0,.62.08l4.69-1.35a.79.79,0,0,0,.56-.61h0a.79.79,0,0,0-.38-.84l-.7-.4A.79.79,0,0,0,186,237.89Z"/></g><path id="_Path_43" data-name="&lt;Path&gt;" class="cls-25" d="M164.31,224.77h4.2A22.08,22.08,0,0,0,179.3,222l12-6.69,48.59,28.09a9.64,9.64,0,0,0,9.69,0L268,232.54l-75.64-43.67Z"/><g id="_Group_8" data-name="&lt;Group&gt;"><polygon id="_Path_44" data-name="&lt;Path&gt;" class="cls-26" points="189.52 305.27 189.52 314.23 291.61 255.29 291.61 246.32 189.52 305.27"/><polygon id="_Path_45" data-name="&lt;Path&gt;" class="cls-26" points="196.27 410 196.27 310.34 189.52 314.23 189.52 413.89 196.27 410"/><polygon id="_Path_46" data-name="&lt;Path&gt;" class="cls-26" points="284.86 358.85 291.61 354.95 291.61 255.29 284.86 259.19 284.86 358.85"/><polygon id="_Path_47" data-name="&lt;Path&gt;" class="cls-26" points="13.52 304.33 13.52 204.67 6.77 208.57 6.77 308.23 13.52 304.33"/></g><g id="_Group_9" data-name="&lt;Group&gt;"><polygon id="_Path_48" data-name="&lt;Path&gt;" class="cls-3" points="0 195.69 0 204.66 0 304.31 6.75 308.21 6.75 208.55 189.51 314.07 189.51 305.1 0 195.69"/><polygon id="_Path_49" data-name="&lt;Path&gt;" class="cls-3" points="182.76 409.83 189.51 413.73 189.51 314.07 182.76 310.17 182.76 409.83"/></g><g id="_Group_10" data-name="&lt;Group&gt;"><polygon id="_Path_50" data-name="&lt;Path&gt;" class="cls-27" points="160.93 230.32 160.91 234.06 139.95 246.25 139.97 242.5 160.93 230.32"/><polygon id="_Path_51" data-name="&lt;Path&gt;" class="cls-23" points="139.97 242.5 139.95 246.25 84.73 214.37 84.75 210.63 139.97 242.5"/><polygon id="_Path_52" data-name="&lt;Path&gt;" class="cls-8" points="160.93 230.32 139.97 242.5 84.75 210.63 105.71 198.44 160.93 230.32"/><g id="_Group_11" data-name="&lt;Group&gt;"><g id="_Group_12" data-name="&lt;Group&gt;" class="cls-1"><g id="_Group_13" data-name="&lt;Group&gt;"><polygon id="_Path_53" data-name="&lt;Path&gt;" class="cls-28" points="114.26 205.94 114.25 207.07 110.13 209.47 110.13 208.34 114.26 205.94"/></g><g id="_Group_14" data-name="&lt;Group&gt;"><polygon id="_Path_54" data-name="&lt;Path&gt;" class="cls-27" points="110.13 208.34 110.13 209.47 101.91 204.73 101.92 203.6 110.13 208.34"/></g><g id="_Group_15" data-name="&lt;Group&gt;"><polygon id="_Path_55" data-name="&lt;Path&gt;" class="cls-24" points="114.26 205.94 110.13 208.34 101.92 203.6 106.05 201.2 114.26 205.94"/></g></g><g id="_Group_16" data-name="&lt;Group&gt;" class="cls-1"><g id="_Group_17" data-name="&lt;Group&gt;"><polygon id="_Path_56" data-name="&lt;Path&gt;" class="cls-28" points="108.55 209.26 108.55 210.38 104.42 212.78 104.42 211.66 108.55 209.26"/></g><g id="_Group_18" data-name="&lt;Group&gt;"><polygon id="_Path_57" data-name="&lt;Path&gt;" class="cls-27" points="104.42 211.66 104.42 212.78 96.21 208.04 96.21 206.92 104.42 211.66"/></g><g id="_Group_19" data-name="&lt;Group&gt;"><polygon id="_Path_58" data-name="&lt;Path&gt;" class="cls-24" points="108.55 209.26 104.42 211.66 96.21 206.92 100.34 204.52 108.55 209.26"/></g></g><g id="_Group_20" data-name="&lt;Group&gt;" class="cls-1"><g id="_Group_21" data-name="&lt;Group&gt;"><polygon id="_Path_59" data-name="&lt;Path&gt;" class="cls-29" points="99.61 210.73 99.61 211.85 95.48 214.25 95.48 213.13 99.61 210.73"/></g><g id="_Group_22" data-name="&lt;Group&gt;"><polygon id="_Path_60" data-name="&lt;Path&gt;" class="cls-29" points="95.48 213.13 95.48 214.25 90.49 211.37 90.49 210.24 95.48 213.13"/></g><g id="_Group_23" data-name="&lt;Group&gt;"><polygon id="_Path_61" data-name="&lt;Path&gt;" class="cls-30" points="99.61 210.73 95.48 213.13 90.49 210.24 94.62 207.84 99.61 210.73"/></g></g><g id="_Group_24" data-name="&lt;Group&gt;" class="cls-1"><g id="_Group_25" data-name="&lt;Group&gt;"><polygon id="_Path_62" data-name="&lt;Path&gt;" class="cls-28" points="120.76 209.7 120.76 210.83 116.63 213.22 116.63 212.1 120.76 209.7"/></g><g id="_Group_26" data-name="&lt;Group&gt;"><polygon id="_Path_63" data-name="&lt;Path&gt;" class="cls-27" points="116.63 212.1 116.63 213.22 111.89 210.49 111.89 209.36 116.63 212.1"/></g><g id="_Group_27" data-name="&lt;Group&gt;"><polygon id="_Path_64" data-name="&lt;Path&gt;" class="cls-24" points="120.76 209.7 116.63 212.1 111.89 209.36 116.02 206.96 120.76 209.7"/></g></g><g id="_Group_28" data-name="&lt;Group&gt;" class="cls-1"><g id="_Group_29" data-name="&lt;Group&gt;"><polygon id="_Path_65" data-name="&lt;Path&gt;" class="cls-28" points="115.06 213.02 115.05 214.14 110.93 216.54 110.93 215.42 115.06 213.02"/></g><g id="_Group_30" data-name="&lt;Group&gt;"><polygon id="_Path_66" data-name="&lt;Path&gt;" class="cls-27" points="110.93 215.42 110.93 216.54 106.18 213.8 106.19 212.68 110.93 215.42"/></g><g id="_Group_31" data-name="&lt;Group&gt;"><polygon id="_Path_67" data-name="&lt;Path&gt;" class="cls-24" points="115.06 213.02 110.93 215.42 106.19 212.68 110.31 210.28 115.06 213.02"/></g></g><g id="_Group_32" data-name="&lt;Group&gt;" class="cls-1"><g id="_Group_33" data-name="&lt;Group&gt;"><polygon id="_Path_68" data-name="&lt;Path&gt;" class="cls-28" points="127.11 213.37 127.11 214.49 122.98 216.89 122.98 215.77 127.11 213.37"/></g><g id="_Group_34" data-name="&lt;Group&gt;"><polygon id="_Path_69" data-name="&lt;Path&gt;" class="cls-27" points="122.98 215.77 122.98 216.89 118.24 214.15 118.24 213.03 122.98 215.77"/></g><g id="_Group_35" data-name="&lt;Group&gt;"><polygon id="_Path_70" data-name="&lt;Path&gt;" class="cls-24" points="127.11 213.37 122.98 215.77 118.24 213.03 122.37 210.63 127.11 213.37"/></g></g><g id="_Group_36" data-name="&lt;Group&gt;" class="cls-1"><g id="_Group_37" data-name="&lt;Group&gt;"><polygon id="_Path_71" data-name="&lt;Path&gt;" class="cls-28" points="121.41 216.68 121.4 217.81 117.28 220.21 117.28 219.08 121.41 216.68"/></g><g id="_Group_38" data-name="&lt;Group&gt;"><polygon id="_Path_72" data-name="&lt;Path&gt;" class="cls-27" points="117.28 219.08 117.28 220.21 112.53 217.47 112.54 216.34 117.28 219.08"/></g><g id="_Group_39" data-name="&lt;Group&gt;"><polygon id="_Path_73" data-name="&lt;Path&gt;" class="cls-24" points="121.41 216.68 117.28 219.08 112.54 216.34 116.67 213.94 121.41 216.68"/></g></g><g id="_Group_40" data-name="&lt;Group&gt;" class="cls-1"><g id="_Group_41" data-name="&lt;Group&gt;"><polygon id="_Path_74" data-name="&lt;Path&gt;" class="cls-28" points="133.37 216.98 133.37 218.11 129.24 220.5 129.24 219.38 133.37 216.98"/></g><g id="_Group_42" data-name="&lt;Group&gt;"><polygon id="_Path_75" data-name="&lt;Path&gt;" class="cls-27" points="129.24 219.38 129.24 220.5 124.5 217.77 124.5 216.64 129.24 219.38"/></g><g id="_Group_43" data-name="&lt;Group&gt;"><polygon id="_Path_76" data-name="&lt;Path&gt;" class="cls-24" points="133.37 216.98 129.24 219.38 124.5 216.64 128.63 214.24 133.37 216.98"/></g></g><g id="_Group_44" data-name="&lt;Group&gt;" class="cls-1"><g id="_Group_45" data-name="&lt;Group&gt;"><polygon id="_Path_77" data-name="&lt;Path&gt;" class="cls-28" points="127.67 220.3 127.66 221.42 123.53 223.82 123.54 222.7 127.67 220.3"/></g><g id="_Group_46" data-name="&lt;Group&gt;"><polygon id="_Path_78" data-name="&lt;Path&gt;" class="cls-27" points="123.54 222.7 123.53 223.82 118.79 221.08 118.8 219.96 123.54 222.7"/></g><g id="_Group_47" data-name="&lt;Group&gt;"><polygon id="_Path_79" data-name="&lt;Path&gt;" class="cls-24" points="127.67 220.3 123.54 222.7 118.8 219.96 122.92 217.56 127.67 220.3"/></g></g><g id="_Group_48" data-name="&lt;Group&gt;" class="cls-1"><g id="_Group_49" data-name="&lt;Group&gt;"><polygon id="_Path_80" data-name="&lt;Path&gt;" class="cls-28" points="139.72 220.65 139.72 221.77 135.59 224.17 135.59 223.05 139.72 220.65"/></g><g id="_Group_50" data-name="&lt;Group&gt;"><polygon id="_Path_81" data-name="&lt;Path&gt;" class="cls-27" points="135.59 223.05 135.59 224.17 130.85 221.43 130.85 220.31 135.59 223.05"/></g><g id="_Group_51" data-name="&lt;Group&gt;"><polygon id="_Path_82" data-name="&lt;Path&gt;" class="cls-24" points="139.72 220.65 135.59 223.05 130.85 220.31 134.98 217.91 139.72 220.65"/></g></g><g id="_Group_52" data-name="&lt;Group&gt;" class="cls-1"><g id="_Group_53" data-name="&lt;Group&gt;"><polygon id="_Path_83" data-name="&lt;Path&gt;" class="cls-28" points="134.02 223.96 134.01 225.09 129.89 227.49 129.89 226.36 134.02 223.96"/></g><g id="_Group_54" data-name="&lt;Group&gt;"><polygon id="_Path_84" data-name="&lt;Path&gt;" class="cls-27" points="129.89 226.36 129.89 227.49 125.14 224.75 125.15 223.63 129.89 226.36"/></g><g id="_Group_55" data-name="&lt;Group&gt;"><polygon id="_Path_85" data-name="&lt;Path&gt;" class="cls-24" points="134.02 223.96 129.89 226.36 125.15 223.63 129.28 221.23 134.02 223.96"/></g></g><g id="_Group_56" data-name="&lt;Group&gt;" class="cls-1"><g id="_Group_57" data-name="&lt;Group&gt;"><polygon id="_Path_86" data-name="&lt;Path&gt;" class="cls-28" points="148.56 225.75 148.56 226.88 142.86 230.19 142.86 229.07 148.56 225.75"/></g><g id="_Group_58" data-name="&lt;Group&gt;"><polygon id="_Path_87" data-name="&lt;Path&gt;" class="cls-27" points="134.58 229.07 134.57 230.19 131.55 228.45 131.55 227.32 134.58 229.07"/></g><g id="_Group_59" data-name="&lt;Group&gt;"><polygon id="_Path_88" data-name="&lt;Path&gt;" class="cls-27" points="138.73 231.47 138.73 232.59 134.57 230.19 134.58 229.07 138.73 231.47"/></g><g id="_Group_60" data-name="&lt;Group&gt;"><polygon id="_Path_89" data-name="&lt;Path&gt;" class="cls-28" points="142.86 229.07 142.86 230.19 138.73 232.59 138.73 231.47 142.86 229.07"/></g><g id="_Group_61" data-name="&lt;Group&gt;"><polygon id="_Path_90" data-name="&lt;Path&gt;" class="cls-24" points="148.56 225.75 142.86 229.07 138.73 231.47 134.58 229.07 131.55 227.32 135.68 224.92 138.7 226.67 144.41 223.35 148.56 225.75"/></g></g><g id="_Group_62" data-name="&lt;Group&gt;" class="cls-1"><g id="_Group_63" data-name="&lt;Group&gt;"><polygon id="_Path_91" data-name="&lt;Path&gt;" class="cls-28" points="137.14 232.39 137.13 233.52 133.01 235.92 133.01 234.79 137.14 232.39"/></g><g id="_Group_64" data-name="&lt;Group&gt;"><polygon id="_Path_92" data-name="&lt;Path&gt;" class="cls-27" points="133.01 234.79 133.01 235.92 97.6 215.47 97.6 214.35 133.01 234.79"/></g><g id="_Group_65" data-name="&lt;Group&gt;"><polygon id="_Path_93" data-name="&lt;Path&gt;" class="cls-24" points="137.14 232.39 133.01 234.79 97.6 214.35 101.73 211.95 137.14 232.39"/></g></g><g id="_Group_66" data-name="&lt;Group&gt;" class="cls-1"><g id="_Group_67" data-name="&lt;Group&gt;"><polygon id="_Path_94" data-name="&lt;Path&gt;" class="cls-28" points="155.19 229.58 155.19 230.7 151.06 233.1 151.06 231.98 155.19 229.58"/></g><g id="_Group_68" data-name="&lt;Group&gt;"><polygon id="_Path_95" data-name="&lt;Path&gt;" class="cls-27" points="151.06 231.98 151.06 233.1 146.32 230.36 146.32 229.24 151.06 231.98"/></g><g id="_Group_69" data-name="&lt;Group&gt;"><polygon id="_Path_96" data-name="&lt;Path&gt;" class="cls-24" points="155.19 229.58 151.06 231.98 146.32 229.24 150.45 226.84 155.19 229.58"/></g></g><g id="_Group_70" data-name="&lt;Group&gt;" class="cls-1"><g id="_Group_71" data-name="&lt;Group&gt;"><polygon id="_Path_97" data-name="&lt;Path&gt;" class="cls-28" points="149.49 232.89 149.48 234.02 145.35 236.42 145.36 235.29 149.49 232.89"/></g><g id="_Group_72" data-name="&lt;Group&gt;"><polygon id="_Path_98" data-name="&lt;Path&gt;" class="cls-27" points="145.36 235.29 145.35 236.42 140.61 233.68 140.62 232.56 145.36 235.29"/></g><g id="_Group_73" data-name="&lt;Group&gt;"><polygon id="_Path_99" data-name="&lt;Path&gt;" class="cls-24" points="149.49 232.89 145.36 235.29 140.62 232.56 144.74 230.16 149.49 232.89"/></g></g><g id="_Group_74" data-name="&lt;Group&gt;" class="cls-1"><g id="_Group_75" data-name="&lt;Group&gt;"><polygon id="_Path_100" data-name="&lt;Path&gt;" class="cls-28" points="143.76 236.22 143.76 237.34 139.63 239.74 139.64 238.62 143.76 236.22"/></g><g id="_Group_76" data-name="&lt;Group&gt;"><polygon id="_Path_101" data-name="&lt;Path&gt;" class="cls-27" points="139.64 238.62 139.63 239.74 134.89 237 134.89 235.88 139.64 238.62"/></g><g id="_Group_77" data-name="&lt;Group&gt;"><polygon id="_Path_102" data-name="&lt;Path&gt;" class="cls-24" points="143.76 236.22 139.64 238.62 134.89 235.88 139.02 233.48 143.76 236.22"/></g></g></g></g><path id="_Path_103" data-name="&lt;Path&gt;" class="cls-31" d="M136.05,211.42l19.82,11.44c4.82,2.79,12.79,2.48,16.93-.66l22.6-18.28L168.86,188.6l-31.67,13C131.76,204,131.23,208.64,136.05,211.42Z"/><path id="_Path_104" data-name="&lt;Path&gt;" class="cls-23" d="M136.05,211.42l19.82,11.44c4.82,2.79,12.79,2.48,16.93-.66l22.6-18.28L168.86,188.6l-31.67,13C131.76,204,131.23,208.64,136.05,211.42Z"/><path id="_Path_105" data-name="&lt;Path&gt;" class="cls-23" d="M114.88,160l13.25-96.31c.24-1.49,5.27-4.41,8.65-2.63l114.94,66.36a4.5,4.5,0,0,1,2.19,4.61l-15.47,95.7a4.48,4.48,0,0,1-4.3,3.76v0H230.8l1-.57-.09,0L117.07,164.55A4.5,4.5,0,0,1,114.88,160Z"/><path id="_Path_106" data-name="&lt;Path&gt;" class="cls-8" d="M228.74,232.14,114.06,165.83a4.5,4.5,0,0,1-2.19-4.6l15.21-95.75a4.5,4.5,0,0,1,6.69-3.19l114.94,66.36a4.5,4.5,0,0,1,2.19,4.61L235.44,229A4.5,4.5,0,0,1,228.74,232.14Z"/><path id="_Path_107" data-name="&lt;Path&gt;" class="cls-32" d="M228.73,223.8,119.44,160.63a2.73,2.73,0,0,1-1.33-2.79l13.62-85.75a2.73,2.73,0,0,1,4.06-1.94l107.54,62.07a2.73,2.73,0,0,1,1.33,2.8l-14.22,88A1.15,1.15,0,0,1,228.73,223.8Z"/><path id="_Path_108" data-name="&lt;Path&gt;" class="cls-33" d="M121.24,159.73a2.73,2.73,0,0,1-1.33-2.79l13.62-85.75a2.7,2.7,0,0,1,.66-1.39,2.73,2.73,0,0,0-2.46,2.29l-13.62,85.75a2.73,2.73,0,0,0,1.33,2.79L228.73,223.8a1.15,1.15,0,0,0,1.71-.81l0-.13Z"/><line id="_Path_109" data-name="&lt;Path&gt;" class="cls-34" x1="140.41" y1="85.88" x2="157.91" y2="95.98"/><g id="_Group_78" data-name="&lt;Group&gt;"><line id="_Path_110" data-name="&lt;Path&gt;" class="cls-34" x1="230.75" y1="137.97" x2="234.11" y2="139.91"/><line id="_Path_111" data-name="&lt;Path&gt;" class="cls-34" x1="224.27" y1="134.26" x2="227.13" y2="135.91"/><line id="_Path_112" data-name="&lt;Path&gt;" class="cls-34" x1="217.42" y1="130.28" x2="220.32" y2="131.95"/></g><circle id="_Path_113" data-name="&lt;Path&gt;" class="cls-35" cx="72.61" cy="133.86" r="7.8"/><g id="_Group_79" data-name="&lt;Group&gt;"><g id="_Group_80" data-name="&lt;Group&gt;"><path id="_Path_114" data-name="&lt;Path&gt;" class="cls-36" d="M265.4,248.66a16.9,16.9,0,0,1-15.29,0c-4.22-2.44-4.22-6.39,0-8.83a16.9,16.9,0,0,1,15.29,0C269.62,242.27,269.62,246.23,265.4,248.66Z"/><polygon id="_Path_115" data-name="&lt;Path&gt;" class="cls-36" points="246.94 244.25 244.69 231 270.81 231 268.57 244.25 246.94 244.25"/><path id="_Path_116" data-name="&lt;Path&gt;" class="cls-37" d="M267.25,224.58c-5.26-3-13.8-3-19.06,0-2.63,1.52-3.95,3.51-3.95,5.5h0v1.82c0,2,1.32,4,3.95,5.5,5.26,3,13.8,3,19.06,0,2.63-1.52,3.95-3.51,3.95-5.5v-1.82C271.19,228.1,269.88,226.1,267.25,224.58Z"/><path id="_Path_117" data-name="&lt;Path&gt;" class="cls-36" d="M266.29,234.92c-4.64,2.56-12.23,2.43-17-.3s-4.81-7-.18-9.59,12.23-2.43,17,.3S270.92,232.35,266.29,234.92Z"/><path id="_Path_118" data-name="&lt;Path&gt;" class="cls-38" d="M266.11,228.26c-4.73-2.73-12.33-2.87-17-.3a6.57,6.57,0,0,0-3.12,3.22,7.23,7.23,0,0,0,3.29,3.44c4.73,2.73,12.33,2.87,17,.3a6.57,6.57,0,0,0,3.12-3.22A7.23,7.23,0,0,0,266.11,228.26Z"/></g><g id="_Group_81" data-name="&lt;Group&gt;"><circle id="_Path_119" data-name="&lt;Path&gt;" class="cls-39" cx="257.76" cy="215.04" r="17.63"/><circle id="_Path_120" data-name="&lt;Path&gt;" class="cls-40" cx="257.76" cy="215.04" r="17.63"/><path id="_Path_121" data-name="&lt;Path&gt;" class="cls-41" d="M242.36,222.46a1.31,1.31,0,1,1,2.22,1.4,14.38,14.38,0,0,1-2.83,2A14.39,14.39,0,0,1,242.36,222.46Z"/><path id="_Path_122" data-name="&lt;Path&gt;" class="cls-41" d="M243.07,219a1.31,1.31,0,0,1-1.13,2.37,14.38,14.38,0,0,1-2.34-2.57A14.39,14.39,0,0,1,243.07,219Z"/><path id="_Path_123" data-name="&lt;Path&gt;" class="cls-41" d="M261.25,213.27a1.31,1.31,0,0,1-2.35-1.18,14.38,14.38,0,0,1,2.61-2.29A14.38,14.38,0,0,1,261.25,213.27Z"/><path id="_Path_124" data-name="&lt;Path&gt;" class="cls-41" d="M273.66,214.4a1.31,1.31,0,0,1,.53-2.58,14.38,14.38,0,0,1,2.89,1.93A14.38,14.38,0,0,1,273.66,214.4Z"/><path id="_Path_125" data-name="&lt;Path&gt;" class="cls-41" d="M274.16,210.28a.83.83,0,0,1-1.44-.82,9.06,9.06,0,0,1,1.73-1.34A9.05,9.05,0,0,1,274.16,210.28Z"/><path id="_Path_126" data-name="&lt;Path&gt;" class="cls-41" d="M258.06,211.65a.83.83,0,0,1-1.63.29,9.06,9.06,0,0,1,.46-2.14A9.06,9.06,0,0,1,258.06,211.65Z"/><path id="_Path_127" data-name="&lt;Path&gt;" class="cls-41" d="M262.73,226.78a1.31,1.31,0,1,1,2.61-.35,14.38,14.38,0,0,1-.88,3.36A14.38,14.38,0,0,1,262.73,226.78Z"/><path id="_Path_128" data-name="&lt;Path&gt;" class="cls-41" d="M266.28,226.32a.83.83,0,0,1,1.18-1.16,9.06,9.06,0,0,1,.83,2A9.06,9.06,0,0,1,266.28,226.32Z"/><circle id="_Path_129" data-name="&lt;Path&gt;" class="cls-42" cx="248.65" cy="212.62" r="1.21"/><circle id="_Path_130" data-name="&lt;Path&gt;" class="cls-42" cx="271.19" cy="218.74" r="1.21"/><circle id="_Path_131" data-name="&lt;Path&gt;" class="cls-42" cx="243.27" cy="205.63" r="1.21"/><circle id="_Path_132" data-name="&lt;Path&gt;" class="cls-42" cx="259.17" cy="220.66" r="1.93"/><circle id="_Path_133" data-name="&lt;Path&gt;" class="cls-42" cx="249.36" cy="230.35" r="1.93"/><circle id="_Path_134" data-name="&lt;Path&gt;" class="cls-42" cx="266.56" cy="207.68" r="1.72"/></g></g><g id="_Group_82" data-name="&lt;Group&gt;"><path class="cls-43" d="M183.26,185.16c-5.66,0-11.4-3.2-16.16-9-10.54-12.88-14.19-35.18-8.3-50.75,3.48-9.2,9.76-14.47,17.23-14.47,5.66,0,11.4,3.2,16.16,9,10.54,12.89,14.19,35.18,8.3,50.75C197,179.89,190.73,185.16,183.26,185.16Z"/></g><path id="_Path_135" data-name="&lt;Path&gt;" class="cls-8" d="M197.14,169.42c-5.39,14.27-17.6,16.26-27.26,4.46s-13.11-32.94-7.72-47.21,17.6-16.26,27.26-4.46S202.53,155.15,197.14,169.42Z"/><g id="_Group_83" data-name="&lt;Group&gt;"><path id="_Path_136" data-name="&lt;Path&gt;" class="cls-44" d="M189.42,146.74c-.69,5.93-5.14,7.84-9.93,4.28s-8.11-11.26-7.41-17.19,5.14-7.84,9.93-4.28S190.11,140.81,189.42,146.74Z"/><path id="_Path_137" data-name="&lt;Path&gt;" class="cls-44" d="M179.49,151c-5.88-4.38-11.33-2-12.18,5.25l21.28,15.85C189.44,164.84,185.37,155.4,179.49,151Z"/></g><path id="_Path_138" data-name="&lt;Path&gt;" class="cls-45" d="M273.31,121.18,215.9,88a2.85,2.85,0,0,1-1.42-2.47V26.64a2.85,2.85,0,0,1,4.27-2.47L274.92,56.6a5.33,5.33,0,0,1,2.67,4.62v57.49A2.85,2.85,0,0,1,273.31,121.18Z"/><path id="_Path_139" data-name="&lt;Path&gt;" class="cls-46" d="M192.59,65.41,154,43.15a1.91,1.91,0,0,1-1-1.66V1.92A1.91,1.91,0,0,1,156,.26L193.67,22a3.58,3.58,0,0,1,1.79,3.1V63.75A1.91,1.91,0,0,1,192.59,65.41Z"/><g id="_Group_84" data-name="&lt;Group&gt;"><g id="_Group_85" data-name="&lt;Group&gt;"><circle id="_Path_140" data-name="&lt;Path&gt;" class="cls-47" cx="213.71" cy="124.25" r="21.85"/><polygon id="_Path_141" data-name="&lt;Path&gt;" class="cls-47" points="199.72 134.01 191.85 145.82 207.58 141.76 199.72 134.01"/></g></g><g id="_Group_86" data-name="&lt;Group&gt;"><path id="_Path_142" data-name="&lt;Path&gt;" class="cls-11" d="M236.24,56.23l-13.66-7.89a.68.68,0,0,1-.34-.59v-9a.68.68,0,0,1,1-.59l13.36,7.72a1.27,1.27,0,0,1,.63,1.1v8.68A.68.68,0,0,1,236.24,56.23Z"/><path id="_Path_143" data-name="&lt;Path&gt;" class="cls-11" d="M232.92,87,222.44,81a.52.52,0,0,1-.26-.45V69.79a.52.52,0,0,1,.78-.45l10.25,5.92a1,1,0,0,1,.49.84V86.6A.52.52,0,0,1,232.92,87Z"/><line id="_Path_144" data-name="&lt;Path&gt;" class="cls-48" x1="222.23" y1="54.63" x2="269.83" y2="82.11"/><line id="_Path_145" data-name="&lt;Path&gt;" class="cls-48" x1="222.23" y1="58.16" x2="269.83" y2="85.64"/><line id="_Path_146" data-name="&lt;Path&gt;" class="cls-48" x1="222.23" y1="61.68" x2="269.83" y2="89.16"/><line id="_Path_147" data-name="&lt;Path&gt;" class="cls-48" x1="222.23" y1="65.21" x2="269.83" y2="92.69"/><line id="_Path_148" data-name="&lt;Path&gt;" class="cls-48" x1="242.44" y1="52.02" x2="269.83" y2="67.83"/><line id="_Path_149" data-name="&lt;Path&gt;" class="cls-48" x1="242.44" y1="55.54" x2="269.83" y2="71.36"/><line id="_Path_150" data-name="&lt;Path&gt;" class="cls-48" x1="242.44" y1="59.07" x2="269.83" y2="74.89"/><line id="_Path_151" data-name="&lt;Path&gt;" class="cls-48" x1="222.23" y1="50.93" x2="269.83" y2="78.41"/><line id="_Path_152" data-name="&lt;Path&gt;" class="cls-48" x1="237.26" y1="77.41" x2="269.83" y2="96.22"/><line id="_Path_153" data-name="&lt;Path&gt;" class="cls-48" x1="237.26" y1="80.94" x2="269.83" y2="99.74"/><line id="_Path_154" data-name="&lt;Path&gt;" class="cls-48" x1="237.26" y1="84.47" x2="269.83" y2="103.27"/><line id="_Path_155" data-name="&lt;Path&gt;" class="cls-48" x1="237.26" y1="87.99" x2="269.83" y2="106.8"/></g><g id="_Group_87" data-name="&lt;Group&gt;"><path id="_Compound_Path_" data-name="&lt;Compound Path&gt;" class="cls-49" d="M179.21,48.12a11,11,0,0,1-5.44-1.65c-6.37-3.68-11.56-12.66-11.56-20,0-3.78,1.33-6.63,3.74-8s5.54-1.12,8.82.77c6.37,3.68,11.56,12.66,11.56,20,0,3.78-1.33,6.63-3.74,8A6.67,6.67,0,0,1,179.21,48.12Zm-9.88-28.57a4.71,4.71,0,0,0-2.38.61c-1.77,1-2.74,3.25-2.74,6.29,0,6.72,4.74,14.92,10.56,18.29,2.63,1.52,5.05,1.79,6.82.77s2.74-3.25,2.74-6.29c0-6.72-4.74-14.93-10.56-18.29A9.07,9.07,0,0,0,169.34,19.55Z"/><polygon id="_Path_156" data-name="&lt;Path&gt;" class="cls-49" points="171.39 38.26 171.39 24.08 179.75 35.99 171.39 38.26"/></g><g id="_Group_88" data-name="&lt;Group&gt;"><path id="_Path_157" data-name="&lt;Path&gt;" class="cls-45" d="M144.19,107.87,100.11,82.42A2.19,2.19,0,0,1,99,80.52V35.28a2.19,2.19,0,0,1,3.28-1.89l43.12,24.9a4.1,4.1,0,0,1,2,3.55V106A2.19,2.19,0,0,1,144.19,107.87Z"/><g id="_Group_89" data-name="&lt;Group&gt;"><path id="_Path_158" data-name="&lt;Path&gt;" class="cls-44" d="M123.31,83.45l-6-10.43-11.82,6.83a1.5,1.5,0,0,1-1.5-2.6l14.42-8.33,6,10.43,15.11-8.72a1.5,1.5,0,1,1,1.5,2.6Z"/><path id="_Path_159" data-name="&lt;Path&gt;" class="cls-44" d="M141.77,81.62a1.5,1.5,0,0,1-1.5-1.5V72.56l-6-3.44a1.5,1.5,0,0,1,1.5-2.6l7.46,4.31v9.29A1.5,1.5,0,0,1,141.77,81.62Z"/></g><line id="_Path_160" data-name="&lt;Path&gt;" class="cls-50" x1="105.12" y1="45.46" x2="115.26" y2="51.31"/><line id="_Path_161" data-name="&lt;Path&gt;" class="cls-50" x1="121.16" y1="54.54" x2="124.82" y2="56.65"/></g></g></g></g></g></svg>