<svg xmlns="http://www.w3.org/2000/svg" viewBox="0 0 70.91 72"><defs><style>.cls-1{fill:#e2a77d;}.cls-2{fill:#ffc28e;}.cls-3{fill:#f0b784;}.cls-4{fill:#d4a700;}.cls-5{fill:#e4f4ff;}.cls-6{fill:#706451;}.cls-7{fill:#877960;}.cls-8{fill:#5e5346;}.cls-9{fill:#414042;}</style></defs><title>BlondeGuy</title><g id="Layer_2" data-name="Layer 2"><g id="_1" data-name="1"><g id="_1-2" data-name="1"><path class="cls-1" d="M45.16,37c.13.86-.09,1.78,0,2.67a10.49,10.49,0,0,0,1.14,3.6,11.25,11.25,0,0,0,.65,1.56c.74,1.23,2.22,1.75,3.59,2.19-1.25,4.46-7.6,7.39-11.63,8.8a3.83,3.83,0,0,1-1.71.3,4.1,4.1,0,0,1-1.61-.7L24.88,48.81a9.6,9.6,0,0,0,2-6.45c0-.5-.07-5.44-.19-5.44h.08C32.81,36.93,39.13,36.51,45.16,37Z"/><path class="cls-2" d="M34.52,11.14C35.9,7.62,37.1,10,37.81,9.45A15,15,0,0,1,42.09,7a5.83,5.83,0,0,1,3.55-.36,4.89,4.89,0,0,1,3.15,4c.65,3.56-1.14,7.25-.57,10.81.08.5.22,1.63,1,1.09.33-.23.12-.84.47-1.11.78-.6,1.16.36,1.22.93a12.1,12.1,0,0,1-.87,6.23c-.51,1.11-1.29,1.46-2,2.28s-.6,2.6-.87,3.7a6.09,6.09,0,0,1-.91,2c-.91,1.3-2.57,2-3.62,3.16a12.31,12.31,0,0,1-3.3,3,7,7,0,0,1-3.16.53l-.44,0L34.08,11C34.23,11.07,34.47,11.28,34.52,11.14Z"/><path class="cls-3" d="M19.33,23.92c0-.58.28-1.57,1.12-1.05.38.23.23.86.58,1.05.85.46.87-.68.9-1.18.11-1.92-.9-3.71-.75-5.59a22.38,22.38,0,0,1,.51-5.21,6.48,6.48,0,0,1,2.73-3.62,5.38,5.38,0,0,1,4.13-.56,5.91,5.91,0,0,1,2.87,2c.89,1,1.31,1,2.66,1.29L35.72,43.3A6.23,6.23,0,0,1,33,43.05a12.31,12.31,0,0,1-3.58-2.64c-1.17-1.08-2.89-1.58-3.93-2.78a6.09,6.09,0,0,1-1.12-1.94c-.38-1.07-.32-2.77-1.24-3.6s-1.64-1-2.26-2.06A12.1,12.1,0,0,1,19.33,23.92Z"/><path class="cls-4" d="M50,19.87a14.71,14.71,0,0,0-.39,3.51l-1.47.07a6.84,6.84,0,0,1,0-.73,18.33,18.33,0,0,0-.14-2.2c-.53-5,1.56-10.41-5.67-10.54-2.54,0-5,1.31-7.57,1.48-3,.2-6.06-1.07-8.66-2.57a1.79,1.79,0,0,0-1-.35,1.5,1.5,0,0,0-.82.43c-2.52,2.19-1.65,4.26-1.83,7.15a40.83,40.83,0,0,0-.17,6c.07.85.29,1.67.31,2.53-2.27.85-1.78-1.67-2.22-3-1.42-4.23-.52-9.31-.92-13.77a5.84,5.84,0,0,1,0-1.43,4.26,4.26,0,0,1,1.08-2.08C23.07,1.48,27.41,1,31.34.64c2.84-.23,6.06-.93,8.89-.51C42.67.5,45,1,47.5,1.2a2.09,2.09,0,0,1,1.36.44,2,2,0,0,1,.46,1C50.52,8.12,51.15,14.37,50,19.87Z"/><path class="cls-5" d="M23.69,72H41.75c.16-2.4.33-4.8.6-7.18.21-1.84.72-2.93.68-4.25a5.28,5.28,0,0,0-.27-1.49l0-.05a56.65,56.65,0,0,0,2.9-7.45,31.45,31.45,0,0,1,3.21-5.48c.29-.35.53-.54.65-.45l-1.38-1a1.18,1.18,0,0,0-.53-.26,1.21,1.21,0,0,0-.8.33,21.8,21.8,0,0,1-10.34,4.52,12,12,0,0,1-10.37-3.6c-3.6,2.62,0,10.67.76,14.18a29,29,0,0,0-2.35,7.71C24.18,69,23.92,70.52,23.69,72Z"/><path class="cls-6" d="M31.43,72,28.59,59.86l-3.2-13.69-.33.13c-.61.24-2.54,2.45-4.6,3.34,0-.22,0-.43,0-.64l-.7.17C12,50.77,7.22,51.48,6.92,51.71c-.46.35-.76,1.39-1,1.89-.72,1.47-1.4,3-2.11,4.43-1.18,2.45-1.35,5-1.66,7.58,0,.34-.07.68-.12,1a21.74,21.74,0,0,1-.8,2.8A13.28,13.28,0,0,0,.87,72Z"/><path class="cls-7" d="M18.42,58.83A75,75,0,0,1,26,72H31.3l-1.62-7.18L26,48.62l.85-6.27c-.75.3-12.43,7-12.75,7.93l9.26,6Z"/><path class="cls-7" d="M70.91,72c-.39-2.84-.7-5.7-.92-8.56-.24-3.19-.41-6.52-2-9.29-2.45-4.29-12.38-3.6-17-4.83-2.27-.61-4.13-3.62-4.81-3.81l-.29-.08L42.17,55.9c-1.91,5.31-4.24,10.68-6.11,16.1Z"/><polygon class="cls-8" points="15.41 72 15.56 66.23 14.84 72 15.41 72"/><path class="cls-6" d="M6.49,72c0-.85.05-1.7.12-2.55.28-3.86.86-7.68,1.24-11.53C8,56.67,9.49,50.88,6.3,52c-1.75.64-2.36,2.84-2.81,4.45-.66,2.33-1.26,4.64-1.78,7C1.1,66.32.54,69.16,0,72Z"/><path class="cls-6" d="M35.9,72h6.95c3.12-4.75,6.4-8.33,9.64-12.28l-6-5.44L57.1,50.19s-11-8.8-11.69-9l.14,5.25L39,63.91Z"/><path class="cls-9" d="M50.4,20.91l-.42-1s-4.63,0-6.88.11-4.81.75-5.89,2.11l0-.06a3.31,3.31,0,0,1-3.21.1l0,.06c-1.16-1.29-3.82-1.8-6-1.73s-7.72.86-7.72.86l-.32,1.42,2.28,1.15a3,3,0,0,0,0,.58c.32,2.88,3.29,4.3,6,4.21h.23A7.14,7.14,0,0,0,30,28.42a6.58,6.58,0,0,0,4.42-4.06,2.17,2.17,0,0,0,.14-.82,4,4,0,0,0,2.21-.07,2.16,2.16,0,0,0,.19.8,6.58,6.58,0,0,0,4.67,3.77,7.17,7.17,0,0,0,1.52.16h.23c2.76-.09,5.63-1.69,5.77-4.59a3,3,0,0,0,0-.58ZM33.22,24a5.39,5.39,0,0,1-3.61,3.33,5.92,5.92,0,0,1-1.24.21h-.19c-2.2.07-4.55-1-4.8-3.18A1.67,1.67,0,0,1,23.83,23,6.09,6.09,0,0,1,28,21.63c2.29-.07,4.44.52,5.13,1.41A.9.9,0,0,1,33.22,24ZM43.29,27H43.1a5.89,5.89,0,0,1-1.25-.13A5.39,5.39,0,0,1,38,23.83a.9.9,0,0,1,.07-.94c.62-.93,2.74-1.66,5-1.74a6.09,6.09,0,0,1,4.21,1.07,1.66,1.66,0,0,1,.53,1.35C47.77,25.76,45.49,27,43.29,27Z"/></g></g></g></svg>