<svg id="Layer_1" data-name="Layer 1" xmlns="http://www.w3.org/2000/svg" viewBox="0 0 1024 1024"><defs><style>.cls-1{fill:#ffd6c4;}.cls-2{fill:#ffc9b1;}.cls-3{fill:#e09d16;}.cls-4{fill:#f2b236;}.cls-5{fill:#fdc2a4;}.cls-6{fill:#fc7361;}.cls-7{fill:#e56558;}.cls-8{fill:#de5445;}.cls-9{fill:#5d747a;}.cls-10{fill:#60ccbc;}.cls-11{fill:#64beb2;}.cls-12{fill:#55b5a8;}.cls-13{fill:#768894;}.cls-14{fill:#320200;}.cls-15{fill:#210000;}.cls-16{fill:#f5b290;}.cls-17{fill:#52b3a6;}.cls-18{fill:#41a89a;}</style></defs><title>Artboard 1</title><g id="Layer_2" data-name="Layer 2"><g id="Layer_1-2" data-name="Layer 1-2"><polygon class="cls-1" points="382.14 405.65 376.8 340 320.64 340 284.16 391.46 382.14 405.65"/><path class="cls-2" d="M382.14,405.65,376.8,340H346.75a256.71,256.71,0,0,1-7.12,59.32Z"/><path class="cls-3" d="M320.84,175.78c1.78,35-47.06,67.73-103.12,46.42-10.93-4.15-25.76,4.94-44.19,13C195,220.32,204,213.3,218,216.12a109.84,109.84,0,0,0,50.72,0A88.34,88.34,0,0,0,320.84,175.78Z"/><path class="cls-4" d="M219.7,166.53c-19.77,5.88-27.29,3-40.29,19.48-8.4,10.73-9,36.93-21.16,49.09,14.83,3.06,36.14-24,50.92-23.68,22.84.59,60.76,9.34,79.1,4.5,32.58-8.6,46.52-51.81,23.68-87.5-8.6-13.45-31-17.5-48.94-13.3C222.22,124.71,235.32,161.94,219.7,166.53Z"/><path class="cls-3" d="M158.25,235.1c14.83,3.06,36.14-24,50.92-23.68,22.84.59,57,9.49,75.29,4.65,32.58-8.6,42.51-48.25,18-82.26-7,19.18-12,17.8-18.54,26.2-27.14,34.6-50.27,8.85-88.54,31.64C183.32,198.86,173.72,231,158.25,235.1Z"/><path class="cls-2" d="M353.82,207.42l54.38-34.6-40.59-54.72-12.85-5.49-6.92-10.13,1.19-2.22-6.13-10.53,5.29-6.23,19.43,12.46,8.65,16.31,54.92,57.25c3.61,4.6.89,11-5.24,15.47l-47.11,40.39c-21.6,17.85-19.08,17.15-20.71,43.5l-18.88-17.3-16.56-35.94C335.23,217.95,336.66,209.44,353.82,207.42Z"/><path class="cls-1" d="M277.54,203.12c4,12.36,4.94,20,.94,24S265,230,257.76,234.46a89.67,89.67,0,0,0-15.42,13.15L186.48,280l-77.22-30.9h0l-7.37-12.75-13-4.94-2.37,2.08-9.24.94L71,242.56l14,13.94,18,1.78,71.14,37.77c13.4,8,9.39,7.42,24.07,1.83l61.15-24.72a35.3,35.3,0,0,1,19.23,11.52L311.3,298l39.79-27.88,4.94-33-5.73-23.58,15.23-13.35a78.06,78.06,0,0,1-18.39,6.48c-20-1.58-22.84,8.06-32.48,9.54-7,1-8.21-5.49-14.14-20.52Z"/><path class="cls-5" d="M333,283.1l18.44-12.9,4.94-33-6.08-23.63,15.23-13.35a78.06,78.06,0,0,1-18.39,6.48c-20-1.58-22.84,8.06-32.48,9.54-7,1-8.21-5.49-14.14-20.52l-12,3.76a232.84,232.84,0,0,0,12.16,27.83C312.69,249.68,324.15,264.71,333,283.1Z"/><path class="cls-6" d="M278.63,226.84c-4.3,4.05-13.5,2.87-20.71,7.37-9.54,5.93-14.83,12.85-26,19.18L198.1,272.82,206.7,295l54.92-20.56A27.68,27.68,0,0,1,273,279.34h0A24.37,24.37,0,0,0,291,301l28.52,38.31-13.64,17.35L380,364.52l-3.21-28.42L371.51,275a24.37,24.37,0,0,0-4.94-38l45.92-39.55-19.18-14.83c-2.42,1.14-19.77,11.47-30.11,17.6-13.79,8-11.91,5.64-24.72,7.17-12.11,1.48-15.42,7.66-23.38,8.85C315.5,227.34,292,235.15,278.63,226.84Z"/><path class="cls-7" d="M285.69,299.12a24.27,24.27,0,0,0,5.29,2.13l28.52,38.31-10.38,13.2c31.54-18.79,42.22-31.19,63.42-66.59l-1-11.12a24.17,24.17,0,0,0,2.22-2.62c-9.15,6.48-23,9.89-39.55,11.17C322.47,294.17,301.91,298.38,285.69,299.12Z"/><path class="cls-7" d="M346,361.16l34.11,3.61-3.21-28.42L371.51,275a24.37,24.37,0,0,0-4.94-38l45.92-39.55-19.18-14.83c-2.42,1.14-19.77,11.47-30.11,17.6-13.79,8-11.91,5.64-24.72,7.17-12.11,1.48-15.42,7.66-23.38,8.85.4,5.64-5.44,10.38-13.05,12.7,20.37,37.77,39.55,54.87,44.49,105.1A133.47,133.47,0,0,1,346,361.16Z"/><path class="cls-8" d="M366.42,237.08h0l40.19-34.6C387.83,216,380.36,222,353.72,228,360,233.72,360.74,235.25,366.42,237.08Z"/><path class="cls-8" d="M372.55,286.17l-1-11.12a24.17,24.17,0,0,0,2.22-2.62c-9.15,6.48-23,9.89-39.55,11.17l-.84.74a147,147,0,0,1,11.86,40.83A228,228,0,0,0,372.55,286.17Z"/><path class="cls-2" d="M304.18,592.12A124.43,124.43,0,0,1,286,602c-9.1,3.31-12.46-2.67-18.54,8.4-2.47,4.55,1.78,6.08,7,20.76-1.29,13.74,2.32,19.23,9.29,30.6,2.62-15.13,3.16-10.78,9.89-28.23a69.51,69.51,0,0,1,18.83-25.11Z"/><path class="cls-1" d="M277.69,207.07a41.33,41.33,0,0,1-10.58-7.86,35.49,35.49,0,0,1-6.72-8.65c-2.32,1.09-3.81-.64-4.94-3.31-1.93-3.91-4.6-7.61-6.23-11.07-2-4.2.3-7.42,3.66-4.35a48.74,48.74,0,0,1-2.27-11.27c-.89-13.84,5.39-26.1,19.77-29.66,15.67-3.76,24.72.59,30.75,14.83a66.14,66.14,0,0,1,3.81,12.11c1.73-2.67,4.5-.79,4.7,3.36s-.54,8.31-.44,12.66c0,2.87-.44,4.94-2.82,5.29a36.28,36.28,0,0,1-3,12.8,43.4,43.4,0,0,1-4.94,9.54c-4,5.59-6.23,8.16-9,8.85A18.24,18.24,0,0,1,277.69,207.07Z"/><path class="cls-2" d="M265.43,132.33a27.93,27.93,0,0,1,4.55-1.48c15.67-3.76,24.72.59,30.75,14.83a66.14,66.14,0,0,1,3.81,12.11c1.73-2.67,4.5-.79,4.7,3.36s-.54,8.31-.44,12.66c0,2.87-.44,4.94-2.82,5.29a36.28,36.28,0,0,1-2.62,12.85,43.4,43.4,0,0,1-4.94,9.54c-3.71,5.24-5.93,7.81-8.5,8.7A443.67,443.67,0,0,0,265.43,132.33Z"/><path class="cls-9" d="M282.58,602c-7.17-.84-16-2.52-18.74,6.28-2.13,6.72,2.87,10.63,9.24,24.72,0,11,5.88,24.12,12.31,34.6s9.89,8.35,9.89-3.56c0-7-3.76-25.06-1.43-29.66Z"/><path class="cls-5" d="M227.51,464.13a124.63,124.63,0,0,1-16.61-12.31c-6.82-6.87-2.82-12.41-15.42-13.3-4.94-.35-4.94,4.15-15.87,14.83-13,4.65-16.46,10.18-23.88,21.31,14.83-4,11.12-1.68,29.66-2.67a69.51,69.51,0,0,1,30.7,6.53Z"/><path class="cls-10" d="M199.13,474l14-20.86,82.8,34.6-16-64.26c-3.11-13.25-2.18-22.84,3.21-30.25l18.29-25.85L380,378.81l2.18,26.84,1.93,9L424,516.63c4.94,12.31,5.34,23-6.87,31.09L301.22,621.88l-13.05-21.5,67-61.35,34.31-14.83-56-96.1-1.68-.49L336.76,529c-1.83,15.37-8.6,23.58-16.46,20.47Z"/><path class="cls-11" d="M199.13,474l8-11.91A707.31,707.31,0,0,1,292.57,517C307,527.85,321.78,542.14,333,543.23c-3.11,5.78-7.56,8.16-12.41,6.28Z"/><path class="cls-11" d="M344.37,373.52l35.54,5.34,2.18,26.84,2,9L424,516.63c4.94,12.31,5.34,23-6.87,31.09L301.22,621.88l-13.05-21.5,67-61.35,34.31-14.83-56-96.1C337.95,408.71,341.85,390.32,344.37,373.52Z"/><path class="cls-12" d="M367.06,376.88l12.9,1.93,2.18,26.84,1.93,9L424,516.63c4.94,12.31,5.34,23-6.87,31.09L301.22,621.88l-4.05-6.72,80.33-62.83,31.93-14c9.89-7.46,7.07-10.53.44-26.74-14.09-34.6-28.28-64.26-46.07-99.17Z"/><path class="cls-13" d="M209.42,448.56c-2.27-6.87-4.45-15.52-13.59-14.34-7,.89-8.4,7.07-18.64,18.79-9.89,4.5-19.43,15.47-26.15,25.66s-3.51,12.31,7.46,7.61c6.48-2.77,21.16-13.94,26.45-13.89Z"/><path class="cls-4" d="M285.1,134.85C260,139,275.91,200.1,218.56,197c-11.67-.64-23.83,7.81-37,20.61,11.67-16.71,23.43-26.74,37.57-26,31.29,1.63,23.63-16.51,24.32-35.69,1.19-33.52,49.43-44.49,59.62-21.95,7.12,16.07-1.53,22.94,2.92,38C295.43,157.93,299.78,141.32,285.1,134.85Z"/></g></g><g id="Layer_2-2" data-name="Layer 2"><g id="Layer_1-2-2" data-name="Layer 1-2"><path class="cls-2" d="M690.77,342.59c-1.43,13-4,20.41-11.26,22-4.55,1-5.16,5.24-11,10.31-8.67,7.67-18.89,11.48-21.23,18.54A22,22,0,0,0,654.11,416c-3.47,36.31-1,50.3,4.38,71a130,130,0,0,1,3.9,20.75l52-13a61.52,61.52,0,0,1-14.12-39.38c0-15.94,7.84-21.66,21.27-40,7.11-9.88,17.59-33.45,15.77-43.76a10,10,0,0,0-11.48-5.59,27.17,27.17,0,0,1-13.86-.61c-6.46-2.95-4-8.19-.91-19.06Z"/><path class="cls-5" d="M669,506.07l45.23-11.22a61.52,61.52,0,0,1-14.12-39.38c0-15.94,7.84-21.66,21.27-40,7.24-10,17.72-33.58,15.9-43.89a10,10,0,0,0-11.48-5.59,27.17,27.17,0,0,1-13.86-.61c-6.46-2.95-4-8.19-.91-19.06l-9.75-1.78c-7.67,40.38-32.5,53.12-36,105.89A221.66,221.66,0,0,0,669,506.07Z"/><path class="cls-5" d="M664.55,693.67c-21.14-17.33-25.43-32.37-22.18-38,3.94-6.89,20-1.56,45.45,13.91,41.59,25.74,49.09,64.34,72.83,89.43,4.59,4.55,11.22,4.33,14.47,8.93,6.11,8.67-3.08,9.32-9.84,17.33s-3.25,16.9-7.24,23.09c-3.51,5.46-9.88,15.29-12.43,13,0-15.64,7.84-31.85-2.9-52C729.5,744.23,679.24,705.84,664.55,693.67Z"/><path class="cls-11" d="M664.55,693.67a75.17,75.17,0,0,1-20.67-24.39,23.57,23.57,0,0,1-2.47-9.1V657.1c-1.52-48.83,8.71-85.7,21.75-131.89a41.29,41.29,0,0,0,.48-19.15l6.2-1,42.94,13c-14.47,48.7-27.86,94.54-39.6,143.15q6.72,3.47,14.69,8.32c41.59,25.74,49.78,63,73.66,88.08L747,779.28C737.78,754.93,687.6,712.82,664.55,693.67Z"/><path class="cls-12" d="M712,517.81h.69c-14.43,49-27.82,94.8-39.56,143.41q6.72,3.47,14.69,8.32c41.59,25.74,49.78,63,73.66,88.08l-6.89,10.31c-35.31-44.41-45-74.7-88-93.2-10-6.2-11-9.88-9.66-21.06l9.36-78Z"/><path class="cls-14" d="M816.15,214a323.52,323.52,0,0,1-1.26,44.84c-4.33,31.89-17.33,39-43.33,49.09,25-3.25,43.89-9.32,48.61-48.61,1.43,43.76-24.65,57.58-43.89,62.74-21.19,5.72-29.2,14.73-48.22,20.58-12.74,3.9-28.86,8.67-40.64-1.21-27.43-23.27-17.76-66.51-1.86-83.14C724.3,218.07,795.31,287.27,816.15,214Z"/><path class="cls-15" d="M816.15,214a323.52,323.52,0,0,1-1.26,44.84c-4.33,31.89-17.33,39-43.33,49.09,25-3.25,43.89-9.32,48.61-48.61,1.43,43.76-24.65,57.58-43.89,62.74-21.19,5.72-29.2,14.73-48.22,20.58-12.74,3.9-19.06,10.05-23.7-4.72,3.25-6.07,1.6-39.86,17.59-52.25C750.6,263.57,812,306,816.15,214Z"/><path class="cls-5" d="M709.4,650.86c-16.42,16.07-29,21.66-35.57,21-10.7-.91-6.46-19.67,14-46.58,29.85-38.65,69-42.24,96.36-63.34,5-4.07,5.5-10.7,10.36-13.47,9.19-5.2,9,4,16.16,11.52s16.46,4.94,22.23,9.53c5.07,4,14.21,11.39,11.78,13.73-15.55-1.6-30.89-11-52.21-2.43C766.33,591.42,723,637.52,709.4,650.86Z"/><path class="cls-14" d="M787.9,557.06a10.4,10.4,0,0,1,11.39-10.92c5.2,0,6.11,7,12.09,13.21,7.32,7.63,16.68,5,22.53,9.66,5.16,4.12,14.51,12.35,12,14.73L831,580.59a181.54,181.54,0,0,0-25.22-14.86C799.73,563.08,794.32,560.35,787.9,557.06Z"/><path class="cls-5" d="M744.19,391.64,764,436.27,811,492.07l-8.67,3.29L749.47,447.7l-22.14-36c-5.42-4.33-3.64-6.37-10-3.21l3.25-18.11c6.89-10.36,10.44-22.36,13.3-21.66C739.47,369.46,742,386.48,744.19,391.64Z"/><path class="cls-16" d="M738.43,429.85l-11.26-18.28a25,25,0,0,1-2-1.82l-1.6,2c-.87,0-4.33-4.33-6.33-3.42,1.56-6.2,2.86-12.13,4.33-16.77,3,7.63,5.11,14.86,8.67,22.92Z"/><path class="cls-1" d="M691.63,346.54a36.22,36.22,0,0,1-5.59-10.1,31.11,31.11,0,0,1-2.21-9.36c-2.25,0-2.82-1.91-2.9-4.33,0-3.81-.91-7.76-.91-11.09,0-4.07,2.95-5.81,4.33-2.17a42.72,42.72,0,0,1,2.3-9.84c4.33-11.35,13.82-18.85,26.3-16.38,13.86,2.73,19.58,9.53,19.06,23.18a57.89,57.89,0,0,1-1.39,11c2.34-1.52,3.9,1,2.51,4.33s-3.47,6.46-5,9.92c-1,2.3-2.21,3.9-4.33,3.21a31.8,31.8,0,0,1-6.28,9,38,38,0,0,1-7.41,5.85c-5.2,3-7.93,4.33-10.4,3.77S694.93,350.83,691.63,346.54Z"/><path class="cls-2" d="M712.91,283.11h.26c13.86,2.73,19.58,9.53,19,23.18a57.89,57.89,0,0,1-1.39,11c2.34-1.52,3.9,1,2.51,4.33s-3.47,6.46-5,9.92c-1,2.3-2.21,3.9-4.33,3.21a31.76,31.76,0,0,1-6.46,9.19,38,38,0,0,1-7.41,5.85c-5.2,3-7.93,4.33-10.4,3.77h0Z"/><path class="cls-10" d="M692.67,643.37l-16.9,28.73c-15-1.26-14.12-10.62-14.47-40.38a683,683,0,0,1,6.41-100.39c1.82-10.66,4.33-15.16,1.17-26.3a223.87,223.87,0,0,0,42.81-12c5.2,6.2,11.18,10.57,15.12,17.33,10.31,17.33-1.82,34.44-10.27,49.7C701.34,587.56,713.86,607.32,692.67,643.37Z"/><path class="cls-11" d="M692.67,643.37l-1.78,3-4.33-7.19C686.3,605.07,708.23,558,716,531.84c3.21-10.83,1.3-20.62-6.63-38l2.25-.82c5.2,6.2,11.18,10.57,15.12,17.33,10.31,17.33-1.82,34.44-10.27,49.7C701.34,587.56,713.86,607.32,692.67,643.37Z"/><polygon class="cls-2" points="810.78 489.34 827.07 489.99 844.53 502.86 842.67 506.58 826.29 499.83 811.17 503.73 801.77 494.76 806.19 486.92 810.78 489.34"/><path class="cls-14" d="M683.92,305.94c6.93,1.39,13.73,2.95,20.54,4.33l2.21-6.37-1.47,6.54c4.77,1.08,9.49,2.17,14.3,3.21l3.9-14.77-2.69,15c3.47.74,7,1.43,10.57,2.08,7.28-22.83-7.28-33.23-17.33-34.66C704.5,280,688.51,281.24,683.92,305.94Z"/><path class="cls-14" d="M684.44,301.61a84.14,84.14,0,0,0,.26,21.66c1.47-11,1.39-13.43,9.71-22.79Z"/><path class="cls-14" d="M734.44,310.75c-4.33,5.24-4.81,13-10.14,19.5a50.17,50.17,0,0,0,2.47-24.57Z"/><path class="cls-2" d="M623.18,398.18l-74.39,22.27,5.81,8,75-11.65A252.07,252.07,0,0,0,673,390.51c4.33-3.47,4-5.07,7.89-6.15s9.66-10.44,8.67-13c-3.47-8.67-4-13.43-18.15-6.15C661.61,370.28,646.31,388.69,623.18,398.18Z"/><polygon class="cls-2" points="550.47 418.02 535.57 409.1 512.52 410.31 512 414.73 530.54 418.29 541.72 430.63 555.33 428.16 555.98 418.59 550.47 418.02"/><path class="cls-15" d="M765.68,761.87a10.36,10.36,0,0,1,12.17,10c.35,5.11-6.37,6.76-12,13.3-6.85,8-3.25,16.9-7.28,23.14-3.55,5.5-10.83,15.6-13.47,13.43l1.56-15A178.2,178.2,0,0,0,759,780.32C760.91,774.13,763.08,768.58,765.68,761.87Z"/><path class="cls-11" d="M682.49,361.31c-4.77,4.77-11,11.18-14,13.78-8.67,7.67-18.89,11.48-21.23,18.54a22,22,0,0,0,6.85,22.57c-3.51,36.09-1,50.09,4.33,70.75a130,130,0,0,1,3.9,20.75l52-13a61.52,61.52,0,0,1-14.12-39.38c0-15.94,7.84-21.66,21.27-40,1-1.43,2.17-3.12,3.29-5-17.33-11.61-9.27-37.61-9.27-44.32a13,13,0,0,1-3.68-1c-9.92,17.72-31.54,34.23-38.52,47.05-4.33-9,7.15-38.65,12-51Z"/><path class="cls-17" d="M669,506.07l45.23-11.22a61.52,61.52,0,0,1-14.12-39.38c0-15.94,7.84-21.66,21.27-40,1-1.43,2.17-3.12,3.29-5-17.33-11.61-9.27-37.61-9.27-44.32a13,13,0,0,1-3.68-1c-9.92,17.72-31.54,34.23-38.52,47.05v-.48a134.57,134.57,0,0,0-8,38.69A221.66,221.66,0,0,0,669,506.07Z"/><path class="cls-18" d="M709.14,431.59c3.29-4.33,7.41-9.45,12.3-16.16,1-1.43,2.17-3.12,3.29-5a23,23,0,0,1-6.46-6.37A121.31,121.31,0,0,1,709.14,431.59Z"/><path class="cls-15" d="M674,311.05c.43-36.18,15.6-54.42,34.27-58.4,26.82-5.68,71.45,16.72,96.32-11.39C774.52,279,735,255,709,261.18,694.62,264.61,678.89,277.47,674,311.05Z"/><path class="cls-17" d="M649.3,410.31a17.33,17.33,0,0,0,4.9,5.63c-3.12,32.37-2.3,47.66,4.81,72.66,13-27.9,26-34,49.61-63.69-14.17,5-23.22,2.17-36.91-3.16A105.33,105.33,0,0,1,649.3,410.31Z"/><path class="cls-18" d="M665.2,477c11.26-18.76,23.53-27,43.33-52-14.17,5-23.22,2.17-36.91-3.16l-1.78-.69a141,141,0,0,0-4.9,29.29A193.07,193.07,0,0,0,665.2,477Z"/><path class="cls-10" d="M709.4,650.86c-18.76,18.41-32.62,23.27-38.34,20.41-7.5-3.73-1.91-21.4,16.72-46,29.85-38.65,66.55-45,94.37-64.34l17.33,19.15C773.3,590.68,723,637.52,709.4,650.86Z"/><path class="cls-11" d="M709.4,650.86c-18.76,18.41-32.62,23.27-38.34,20.41a5.29,5.29,0,0,1-2.43-2.47,54.42,54.42,0,0,0,11.52-7.71C690.68,652.73,702,640,713.3,630.5a754.23,754.23,0,0,1,79.29-58l6.85,7.58C773.3,590.68,723,637.52,709.4,650.86Z"/></g></g></svg>