<?xml version="1.0" encoding="utf-8"?>
<!-- Generator: Adobe Illustrator 21.0.0, SVG Export Plug-In . SVG Version: 6.00 Build 0)  -->
<svg version="1.1" id="Layer_1" xmlns="http://www.w3.org/2000/svg" xmlns:xlink="http://www.w3.org/1999/xlink" x="0px" y="0px"
	 viewBox="0 0 1024 1024" style="enable-background:new 0 0 1024 1024;" xml:space="preserve">
<style type="text/css">
	.st0{fill:#FFD6C4;}
	.st1{fill:#FFC9B1;}
	.st2{fill:#E09D16;}
	.st3{fill:#F2B236;}
	.st4{fill:#FDC2A4;}
	.st5{fill:#FC7361;}
	.st6{fill:#E56558;}
	.st7{fill:#DE5445;}
	.st8{fill:#5D747A;}
	.st9{fill:#60CCBC;}
	.st10{fill:#64BEB2;}
	.st11{fill:#55B5A8;}
	.st12{fill:#768894;}
	.st13{fill:#320200;}
	.st14{fill:#210000;}
	.st15{fill:#F5B290;}
	.st16{fill:#52B3A6;}
	.st17{fill:#41A89A;}
</style>
<title>Artboard 1</title>
<g id="Layer_2">
	<g id="Layer_1-2">
		<polygon class="st0" points="409.9,424.5 402.9,338 328.9,338 280.8,405.8 		"/>
		<path class="st1" d="M409.9,424.5l-7-86.5h-39.6c-0.1,26.3-3.2,52.6-9.4,78.2L409.9,424.5z"/>
		<path class="st2" d="M329.2,121.6c2.3,46.1-62,89.2-135.9,61.2c-14.4-5.5-33.9,6.5-58.2,17.1c28.3-19.6,40.1-28.9,58.6-25.1
			c22,5.2,44.9,5.2,66.8,0C289.4,166.5,314,147.5,329.2,121.6z"/>
		<path class="st3" d="M195.9,109.4c-26,7.7-36,4-53.1,25.7c-11.1,14.1-11.9,48.7-27.9,64.7c19.5,4,47.6-31.6,67.1-31.2
			c30.1,0.8,80.1,12.3,104.2,5.9c42.9-11.3,61.3-68.3,31.2-115.3c-11.3-17.7-40.8-23.1-64.5-17.5
			C199.2,54.3,216.5,103.3,195.9,109.4z"/>
		<path class="st2" d="M115,199.7c19.5,4,47.6-31.6,67.1-31.2c30.1,0.8,75.1,12.5,99.2,6.1c42.9-11.3,56-63.6,23.7-108.4
			c-9.2,25.3-15.8,23.5-24.4,34.5c-35.8,45.6-66.2,11.7-116.7,41.7C148,152,135.3,194.3,115,199.7z"/>
		<path class="st1" d="M372.6,163.3l71.6-45.6l-53.5-72.1l-16.9-7.2L364.8,25l1.6-2.9l-8.1-13.9l7-8.2l25.6,16.4l11.4,21.5
			l72.4,75.4c4.8,6.1,1.2,14.5-6.9,20.4l-62.1,53.2c-28.5,23.5-25.1,22.6-27.3,57.3l-24.9-22.8l-21.8-47.4
			C348.1,177.1,350,165.9,372.6,163.3z"/>
		<path class="st0" d="M272.1,157.6c5.3,16.3,6.5,26.4,1.2,31.6s-17.8,3.8-27.3,9.7c-7.4,5-14.2,10.8-20.3,17.3l-73.6,42.7
			L50.4,218.2l0,0l-9.7-16.8l-17.1-6.5l-3.1,2.7l-12.2,1.2L0,209.6l18.4,18.4l23.7,2.3l93.7,49.8c17.7,10.5,12.4,9.8,31.7,2.4
			l80.6-32.6c9.9,2.2,18.8,7.5,25.3,15.2l43.1,17.5l52.4-36.7l6.5-43.5l-7.5-31.1l20.1-17.6c-7.7,3.8-15.8,6.7-24.2,8.5
			c-26.4-2.1-30.1,10.6-42.8,12.6c-9.2,1.3-10.8-7.2-18.6-27L272.1,157.6z"/>
		<path class="st4" d="M345.2,263l24.3-17l6.5-43.5l-8-31.1l20.1-17.6c-7.7,3.8-15.8,6.7-24.2,8.5c-26.4-2.1-30.1,10.6-42.8,12.6
			c-9.2,1.3-10.8-7.2-18.6-27l-15.8,5c4.5,12.6,9.9,24.8,16,36.7C318.4,219,333.5,238.8,345.2,263z"/>
		<path class="st5" d="M273.6,188.9c-5.7,5.3-17.8,3.8-27.3,9.7c-12.6,7.8-19.5,16.9-34.3,25.3l-44.6,25.6l11.3,29.2l72.4-27.1
			c5.4,1,10.5,3.2,15,6.5l0,0c1.1,13.6,10.6,25,23.7,28.5l37.6,50.5l-18,22.9l97.7,10.4l-4.2-37.4l-7-80.5
			c12.4-12.7,12.2-33-0.5-45.4c-1.8-1.8-3.9-3.4-6.1-4.7l60.5-52.1l-25.3-19.5c-3.2,1.5-26,15.1-39.7,23.2
			c-18.2,10.5-15.7,7.4-32.6,9.4c-16,1.9-20.3,10.1-30.8,11.7C322.1,189.5,291.2,199.8,273.6,188.9z"/>
		<path class="st6" d="M282.9,284.1c2.2,1.2,4.5,2.1,7,2.8l37.6,50.5l-13.7,17.4c41.6-24.8,55.6-41.1,83.6-87.7l-1.3-14.7
			c1.1-1.1,2-2.2,2.9-3.5c-12.1,8.5-30.3,13-52.1,14.7C331.3,277.6,304.2,283.1,282.9,284.1z"/>
		<path class="st6" d="M362.3,365.8l44.9,4.8l-4.2-37.4l-7.1-80.8c12.4-12.7,12.2-33-0.5-45.4c-1.8-1.8-3.9-3.4-6.1-4.7l60.5-52.1
			l-25.3-19.5c-3.2,1.5-26,15.1-39.7,23.2c-18.2,10.5-15.7,7.4-32.6,9.4c-16,1.9-20.3,10.1-30.8,11.7c0.5,7.4-7.2,13.7-17.2,16.7
			c26.8,49.8,52.1,72.3,58.6,138.5C364,342,363.8,354,362.3,365.8z"/>
		<path class="st7" d="M389.2,202.3L389.2,202.3l53-45.6c-24.7,17.8-34.6,25.7-69.7,33.6C380.8,197.9,381.7,199.9,389.2,202.3z"/>
		<path class="st7" d="M397.3,267l-1.3-14.7c1.1-1.1,2-2.2,2.9-3.5c-12.1,8.5-30.3,13-52.1,14.7l-1.1,1
			c7.8,17.1,13.1,35.2,15.6,53.8C375.1,302.6,387.1,285.4,397.3,267z"/>
		<path class="st1" d="M307.2,670.1c-7.6,5-15.6,9.4-24,13c-12,4.4-16.4-3.5-24.4,11.1c-3.3,6,2.3,8,9.2,27.4
			c-1.7,18.1,3.1,25.3,12.2,40.3c3.5-19.9,4.2-14.2,13-37.2c5.6-12.8,14.1-24.1,24.8-33.1L307.2,670.1z"/>
		<path class="st0" d="M272.3,162.8c-5.2-2.7-9.9-6.2-13.9-10.4c-3.5-3.3-6.5-7.2-8.9-11.4c-3.1,1.4-5-0.8-6.5-4.4
			c-2.5-5.2-6.1-10-8.2-14.6c-2.6-5.5,0.4-9.8,4.8-5.7c-1.6-4.8-2.6-9.8-3-14.8c-1.2-18.2,7.1-34.4,26-39.1
			c20.6-5,32.6,0.8,40.5,19.5c2.2,5.1,3.9,10.5,5,16c2.3-3.5,5.9-1,6.2,4.4s-0.7,10.9-0.6,16.7c0,3.8-0.6,6.5-3.7,7
			c-0.3,5.8-1.6,11.5-4,16.9c-1.6,4.4-3.8,8.7-6.5,12.6c-5.3,7.4-8.2,10.8-11.9,11.7C282.3,167.5,276.8,166,272.3,162.8z"/>
		<path class="st1" d="M256.2,64.3c1.9-0.8,3.9-1.5,6-1.9c20.6-5,32.6,0.8,40.5,19.5c2.2,5.1,3.9,10.5,5,16c2.3-3.5,5.9-1,6.2,4.4
			c0.3,5.5-0.7,10.9-0.6,16.7c0,3.8-0.6,6.5-3.7,7c-0.1,5.8-1.3,11.5-3.5,16.9c-1.6,4.4-3.8,8.7-6.5,12.6
			c-4.9,6.9-7.8,10.3-11.2,11.5C280.9,131.8,270.1,97.5,256.2,64.3z"/>
		<path class="st8" d="M278.8,683.2c-9.4-1.1-21.1-3.3-24.7,8.3c-2.8,8.9,3.8,14,12.2,32.6c0,14.5,7.7,31.8,16.2,45.6
			c8.5,13.8,13,11,13-4.7c0-9.2-5-33-1.9-39.1L278.8,683.2z"/>
		<path class="st4" d="M206.2,501.5c-7.7-4.8-15.1-10.2-21.9-16.2c-9-9.1-3.7-16.4-20.3-17.5c-6.5-0.5-6.5,5.5-20.9,19.5
			c-17.1,6.1-21.7,13.4-31.5,28.1c19.5-5.3,14.7-2.2,39.1-3.5c14-0.3,27.8,2.7,40.4,8.6L206.2,501.5z"/>
		<path class="st9" d="M168.8,514.5l18.4-27.5l109.1,45.6l-21.1-84.7c-4.1-17.5-2.9-30.1,4.2-39.9l24.1-34.1l103.5,15.1l2.9,35.4
			l2.5,11.9l52.6,134.4c6.5,16.2,7,30.3-9.1,41l-152.7,97.7L286.1,681l88.3-80.8l45.2-19.5L345.8,454l-2.2-0.6l6.5,133.6
			c-2.4,20.3-11.3,31.1-21.7,27L168.8,514.5z"/>
		<path class="st10" d="M168.8,514.5l10.5-15.7c39.2,21.4,76.8,45.6,112.6,72.3c19,14.3,38.5,33.1,53.3,34.6
			c-4.1,7.6-10,10.8-16.4,8.3L168.8,514.5z"/>
		<path class="st10" d="M360.2,382.1l46.8,7l2.9,35.4l2.6,11.9l52.6,134.3c6.5,16.2,7,30.3-9.1,41l-152.7,97.7L286.1,681l88.3-80.8
			l45.2-19.5L345.8,454C351.7,428.5,356.9,404.3,360.2,382.1z"/>
		<path class="st11" d="M390.1,386.5l17,2.5l2.9,35.4l2.5,11.9l52.6,134.4c6.5,16.2,7,30.3-9.1,41l-152.7,97.7l-5.3-8.9l105.8-82.8
			l42.1-18.4c13-9.8,9.3-13.9,0.6-35.2c-18.6-45.6-37.3-84.7-60.7-130.7L390.1,386.5z"/>
		<path class="st12" d="M182.4,481c-3-9.1-5.9-20.4-17.9-18.9c-9.2,1.2-11.1,9.3-24.6,24.8c-13,5.9-25.6,20.4-34.5,33.8
			c-8.9,13.4-4.6,16.2,9.8,10c8.5-3.6,27.9-18.4,34.8-18.3L182.4,481z"/>
		<path class="st3" d="M282.1,67.7c-33.1,5.5-12.1,86-87.7,81.9c-15.4-0.8-31.4,10.3-48.7,27.2c15.4-22,30.9-35.2,49.5-34.3
			c41.2,2.1,31.1-21.8,32-47c1.6-44.2,65.1-58.6,78.6-28.9c9.4,21.2-2,30.2,3.8,50.1C295.7,98.1,301.4,76.2,282.1,67.7z"/>
	</g>
</g>
<g id="Layer_2-2">
	<g id="Layer_1-2-2">
		<path class="st1" d="M816.6,341.4c-1.9,17.1-5.3,26.9-14.8,29c-6,1.3-6.8,6.9-14.5,13.6c-11.4,10.1-24.9,15.1-28,24.4
			c-3,10.8,0.5,22.4,9,29.7c-4.6,47.8-1.3,66.3,5.8,93.5c2.5,9,4.2,18.1,5.1,27.3l68.5-17.1c-12.1-14.6-18.7-32.9-18.6-51.9
			c0-21,10.3-28.5,28-52.7c9.4-13,23.2-44.1,20.8-57.7c-2.6-5.8-9-8.9-15.1-7.4c-6.1,1.3-12.3,1-18.3-0.8
			c-8.5-3.9-5.3-10.8-1.2-25.1L816.6,341.4z"/>
		<path class="st4" d="M787.9,556.8l59.6-14.8c-12.1-14.6-18.7-32.9-18.6-51.9c0-21,10.3-28.5,28-52.7c9.5-13.2,23.3-44.2,20.9-57.8
			c-2.6-5.8-9-8.9-15.1-7.4c-6.1,1.3-12.3,1-18.3-0.8c-8.5-3.9-5.3-10.8-1.2-25.1l-12.8-2.3c-10.1,53.2-42.8,70-47.4,139.5
			C781.5,508,783.2,532.6,787.9,556.8z"/>
		<path class="st4" d="M782,803.9c-27.9-22.8-33.5-42.6-29.2-50.1c5.2-9.1,26.4-2.1,59.9,18.3c54.8,33.9,64.7,84.8,96,117.8
			c6,6,14.8,5.7,19.1,11.8c8.1,11.4-4.1,12.3-13,22.8c-8.9,10.6-4.3,22.3-9.5,30.4c-4.6,7.2-13,20.1-16.4,17.1
			c0-20.6,10.3-42-3.8-68.5C867.6,870.5,801.4,820,782,803.9z"/>
		<path class="st10" d="M782,803.9c-11.3-8.6-20.6-19.6-27.2-32.1c-1.9-3.7-3-7.8-3.3-12v-4.1c-2-64.3,11.5-112.9,28.7-173.8
			c2.2-8.2,2.4-16.9,0.6-25.2l8.2-1.3l56.6,17.1c-19.1,64.2-36.7,124.6-52.2,188.6c5.9,3,12.4,6.7,19.4,11
			c54.8,33.9,65.6,83,97.1,116.1l-19.1,28.6C878.5,884.6,812.4,829.2,782,803.9z"/>
		<path class="st11" d="M844.6,572.2h0.9c-19,64.6-36.7,124.9-52.1,189c5.9,3,12.4,6.7,19.4,11c54.8,33.9,65.6,83,97.1,116.1
			l-9.1,13.6c-46.5-58.5-59.3-98.4-115.9-122.8c-13.2-8.2-14.5-13-12.7-27.7l12.3-102.8L844.6,572.2z"/>
		<path class="st13" d="M981.8,171.9c0.8,19.7,0.3,39.4-1.7,59.1c-5.7,42-22.8,51.4-57.1,64.7c32.9-4.3,57.8-12.3,64-64
			c1.9,57.7-32.5,75.9-57.8,82.7c-27.9,7.5-38.5,19.4-63.5,27.1c-16.8,5.1-38,11.4-53.5-1.6c-36.1-30.7-23.4-87.6-2.5-109.5
			C860.8,177.3,954.3,268.5,981.8,171.9z"/>
		<path class="st14" d="M981.8,171.9c0.8,19.7,0.3,39.4-1.7,59.1c-5.7,42-22.8,51.4-57.1,64.7c32.9-4.3,57.8-12.3,64-64
			c1.9,57.7-32.5,75.9-57.8,82.7c-27.9,7.5-38.5,19.4-63.5,27.1c-16.8,5.1-25.1,13.2-31.2-6.2c4.3-8,2.1-52.5,23.2-68.8
			C895.4,237.3,976.3,293.2,981.8,171.9z"/>
		<path class="st4" d="M841.1,747.5c-21.6,21.2-38.2,28.5-46.9,27.7c-14.1-1.2-8.5-25.9,18.4-61.4c39.3-50.9,90.9-55.7,127-83.5
			c6.6-5.4,7.2-14.1,13.6-17.7c12.1-6.9,11.9,5.3,21.3,15.2c9.4,9.9,21.7,6.5,29.3,12.6c6.7,5.3,18.7,15,15.5,18.1
			c-20.5-2.1-40.7-14.5-68.8-3.2C916.1,669.2,859,730,841.1,747.5z"/>
		<path class="st13" d="M944.6,623.9c-0.4-7.6,5.4-14,12.9-14.4c0.7,0,1.4,0,2.1,0c6.9,0,8.1,9.2,15.9,17.4
			c9.6,10.1,22,6.6,29.7,12.7c6.8,5.4,19.1,16.3,15.8,19.4l-19.6-4.2c-10.5-7.4-21.6-14-33.2-19.6
			C960.1,631.9,953,628.3,944.6,623.9z"/>
		<path class="st4" d="M887,406l26.1,58.8l61.9,73.5l-11.4,4.3l-69.6-62.8l-29.2-47.4c-7.1-5.7-4.8-8.4-13.2-4.2l4.3-23.9
			c9.1-13.6,13.8-29.5,17.5-28.5C880.7,376.8,884.1,399.2,887,406z"/>
		<path class="st15" d="M879.4,456.3l-14.8-24.1c-0.9-0.8-1.8-1.6-2.6-2.4l-2.1,2.6c-1.1,0-5.7-5.7-8.3-4.5c2.1-8.2,3.8-16,5.7-22.1
			c4,10.1,6.7,19.6,11.4,30.2L879.4,456.3z"/>
		<path class="st0" d="M817.7,346.6c-3.2-4-5.6-8.5-7.4-13.3c-1.6-3.9-2.6-8.1-2.9-12.3c-3,0-3.7-2.5-3.8-5.7c0-5-1.2-10.2-1.2-14.6
			c0-5.4,3.9-7.7,5.7-2.9c0.5-4.4,1.5-8.8,3-13c5.7-15,18.2-24.8,34.7-21.6c18.3,3.6,25.8,12.6,25.1,30.5c-0.1,4.9-0.8,9.7-1.8,14.5
			c3.1-2,5.1,1.3,3.3,5.7c-1.8,4.4-4.6,8.5-6.6,13.1c-1.3,3-2.9,5.1-5.7,4.2c-2.1,4.4-4.8,8.4-8.3,11.9c-2.9,3-6.2,5.6-9.8,7.7
			c-6.9,4-10.4,5.7-13.7,5S822.1,352.2,817.7,346.6z"/>
		<path class="st1" d="M845.8,263h0.3c18.3,3.6,25.8,12.6,25,30.5c-0.1,4.9-0.8,9.7-1.8,14.5c3.1-2,5.1,1.3,3.3,5.7
			c-1.8,4.4-4.6,8.5-6.6,13.1c-1.3,3-2.9,5.1-5.7,4.2c-2.1,4.5-5,8.6-8.5,12.1c-2.9,3-6.2,5.6-9.8,7.7c-6.9,4-10.4,5.7-13.7,5l0,0
			L845.8,263z"/>
		<path class="st9" d="M819.1,737.7l-22.3,37.9c-19.8-1.7-18.6-14-19.1-53.2c-0.4-44.2,2.4-88.4,8.4-132.3c2.4-14,5.7-20,1.5-34.7
			c19.3-3.4,38.2-8.7,56.4-15.8c6.9,8.2,14.7,13.9,19.9,22.8c13.6,22.8-2.4,45.4-13.5,65.5C830.5,664.1,847,690.2,819.1,737.7z"/>
		<path class="st10" d="M819.1,737.7l-2.3,4l-5.7-9.5c-0.3-44.9,28.6-107,38.8-141.4c4.2-14.3,1.7-27.2-8.7-50.1l3-1.1
			c6.9,8.2,14.7,13.9,19.9,22.8c13.6,22.8-2.4,45.4-13.5,65.5C830.5,664.1,847,690.2,819.1,737.7z"/>
		<polygon class="st1" points="974.7,534.7 996.2,535.6 1019.2,552.5 1016.7,557.4 995.1,548.5 975.2,553.7 962.8,541.9 
			968.7,531.5 		"/>
		<path class="st13" d="M807.6,293.1c9.1,1.8,18.1,3.9,27.1,5.7l2.9-8.4l-1.9,8.6c6.3,1.4,12.5,2.9,18.8,4.2l5.1-19.5l-3.5,19.8
			c4.6,1,9.2,1.9,13.9,2.7c9.6-30.1-9.6-43.8-22.8-45.7C834.7,258.9,813.6,260.5,807.6,293.1z"/>
		<path class="st13" d="M808.2,287.4c-1.1,9.5-1,19.1,0.3,28.5c1.9-14.5,1.8-17.7,12.8-30L808.2,287.4z"/>
		<path class="st13" d="M874.1,299.4c-5.7,6.9-6.3,17.1-13.4,25.7c3.8-10.4,4.9-21.5,3.3-32.4L874.1,299.4z"/>
		<path class="st1" d="M727.5,414.6l-98,29.3l7.7,10.5l98.8-15.3c20.2-9.6,39.3-21.2,57.2-34.6c5.7-4.6,5.3-6.7,10.4-8.1
			s12.7-13.8,11.4-17.1c-4.6-11.4-5.3-17.7-23.9-8.1C778.2,377.8,758,402.1,727.5,414.6z"/>
		<polygon class="st1" points="631.7,440.7 612.1,429 581.7,430.6 581,436.4 605.5,441.1 620.2,457.4 638.1,454.1 639,441.5 		"/>
		<path class="st14" d="M915.3,893.8c7.4-1.3,14.5,3.6,15.8,11.1c0.1,0.7,0.2,1.4,0.2,2.1c0.5,6.7-8.4,8.9-15.8,17.5
			c-9,10.5-4.3,22.3-9.6,30.5c-4.7,7.2-14.3,20.6-17.7,17.7l2.1-19.8c6.4-11.1,11.8-22.8,16.3-34.8
			C909,909.9,911.9,902.6,915.3,893.8z"/>
		<path class="st10" d="M805.7,366c-6.3,6.3-14.5,14.7-18.4,18.2c-11.4,10.1-24.9,15.1-28,24.4c-3,10.8,0.5,22.4,9,29.7
			c-4.6,47.6-1.3,66,5.7,93.2c2.5,9,4.2,18.1,5.1,27.3l68.5-17.1c-12.1-14.6-18.7-32.9-18.6-51.9c0-21,10.3-28.5,28-52.7
			c1.3-1.9,2.9-4.1,4.3-6.6c-22.8-15.3-12.2-49.6-12.2-58.4c-1.7-0.2-3.3-0.6-4.8-1.3c-13.1,23.3-41.6,45.1-50.8,62
			c-5.7-11.9,9.4-50.9,15.8-67.2L805.7,366z"/>
		<path class="st16" d="M787.9,556.8l59.6-14.8c-12.1-14.6-18.7-32.9-18.6-51.9c0-21,10.3-28.5,28-52.7c1.3-1.9,2.9-4.1,4.3-6.6
			c-22.8-15.3-12.2-49.6-12.2-58.4c-1.7-0.2-3.3-0.6-4.8-1.3c-13.1,23.3-41.6,45.1-50.8,62v-0.6c-6,16.4-9.6,33.6-10.5,51
			C781.5,508,783.1,532.6,787.9,556.8z"/>
		<path class="st17" d="M840.8,458.6c4.3-5.7,9.8-12.5,16.2-21.3c1.3-1.9,2.9-4.1,4.3-6.6c-3.4-2.2-6.3-5.1-8.5-8.4
			C850.3,434.9,846.2,447.1,840.8,458.6z"/>
		<path class="st14" d="M794.5,299.8c0.6-47.7,20.6-71.7,45.2-76.9c35.3-7.5,94.1,22,126.9-15c-39.6,49.7-91.7,18.1-125.9,26.2
			C821.7,238.6,800.9,255.6,794.5,299.8z"/>
		<path class="st16" d="M761.9,430.6c1.6,2.9,3.8,5.4,6.5,7.4c-4.1,42.6-3,62.8,6.3,95.7c17.1-36.8,34.3-44.8,65.4-83.9
			c-18.7,6.6-30.6,2.9-48.6-4.2C781.1,441.8,771.1,436.8,761.9,430.6z"/>
		<path class="st17" d="M782.9,518.5c14.8-24.7,31-35.6,57.1-68.5c-18.7,6.6-30.6,2.9-48.6-4.2l-2.3-0.9
			c-3.5,12.6-5.7,25.5-6.5,38.6C781.9,495.1,782,506.8,782.9,518.5z"/>
		<path class="st9" d="M841.1,747.5c-24.7,24.3-43,30.7-50.5,26.9c-9.9-4.9-2.5-28.2,22-60.6C852,662.9,900.3,654.5,937,629
			l22.8,25.2C925.3,668.2,859,730,841.1,747.5z"/>
		<path class="st10" d="M841.1,747.5c-24.7,24.3-43,30.7-50.5,26.9c-1.4-0.7-2.5-1.8-3.2-3.3c5.5-2.7,10.6-6.1,15.2-10.2
			c13.9-11,28.8-27.8,43.7-40.3c33.1-27.7,68-53.2,104.5-76.4l9,10C925.3,668.2,859,730,841.1,747.5z"/>
	</g>
</g>
</svg>
