<svg xmlns="http://www.w3.org/2000/svg" viewBox="0 0 68.89 149.09"><defs><style>.cls-1{fill:#120000;}.cls-1,.cls-10,.cls-11,.cls-12,.cls-13,.cls-14,.cls-2,.cls-3,.cls-4,.cls-5,.cls-6,.cls-7,.cls-8,.cls-9{fill-rule:evenodd;}.cls-2{fill:#320200;}.cls-3{fill:#210000;}.cls-4{fill:#ffc9b1;}.cls-5{fill:#fdc2a4;}.cls-6{fill:#030000;}.cls-7{fill:#ffd6c4;}.cls-8{fill:#f60;}.cls-9{fill:#e35805;}.cls-10{fill:#00b1bf;}.cls-11{fill:#00c3d1;}.cls-12{fill:#0399aa;}.cls-13{fill:#008c9c;}.cls-14{fill:#00cbd9;}</style></defs><title>SG0isAJoke</title><g id="Layer_2" data-name="Layer 2"><g id="Layer_1-2" data-name="Layer 1"><polygon class="cls-1" points="7.63 138.76 13.82 140.55 13.05 145.2 10.46 148.82 5.35 147.59 4.99 142.78 7.63 138.76"/><polygon class="cls-2" points="36.96 70.23 26.05 71.88 20.99 86.89 16.4 108.89 12.29 119.28 6.57 140.47 13.65 142.51 24.21 110.64 33.96 88.78 35.12 88.63 36.96 70.23"/><path class="cls-3" d="M37,70.23,26,71.88l-.63,1.85,11.15.4.39-3.9ZM11.71,142l1.93.56,10.57-31.87,9.67-21.71-1.31-.11-10,21.51L19,113.78Z"/><polygon class="cls-1" points="62.51 139.04 56.32 140.82 57.1 145.47 59.68 149.09 64.8 147.86 65.16 143.06 62.51 139.04"/><path class="cls-4" d="M25.85,36.9c-.86,0-2-.46-3-.21-4.64,1.28-.94,9.62,0,9.8,9,1.69,13.89.76,22.6.76,0-7.43,7.6-10.2-.91-9.86-3.77-.25-6.63-2.62-5.76-6.52-2.69.05-5,.05-7.67,0C32,34.77,29.62,36.65,25.85,36.9Z"/><path class="cls-5" d="M35,47.2c5.51-.16,6.62-.55,11.59-.55,0-7.43,6.26-9.78-2.25-9.44-3.77-.25-6.37-2.44-5.5-6.35-1.34,0-2.59,0-3.84,0Z"/><polygon class="cls-3" points="35.04 70.02 43.89 68.32 49.54 87.56 53.66 108.89 58.16 120.09 63.59 140.58 56.51 142.62 45.84 110.64 36.47 88.88 35.04 88.6 35.04 70.02"/><polygon class="cls-6" points="35.04 70.02 43.89 68.32 49.54 87.56 53.66 108.89 58.16 120.09 63.59 140.58 61.12 141.29 55.13 120.45 52.14 115.05 52.37 109.75 47.19 88.3 43.57 83.35 39.95 78.46 35.04 71.7 35.04 70.02"/><path class="cls-7" d="M34.9,34H35a4.15,4.15,0,0,0,1.75-.21c.45-.19.67-.64,1.29-1.23s1.48-1,1.71-1.58a9.55,9.55,0,0,0,.33-2.39c.49.27,1-1.13,1.12-1.59.15-.68.64-1.83.8-2.61.09-.44,0-.8-.11-.91-.32-.24-.65-.11-1.12.54,0-.55-.07-1.11,0-1.71a14.86,14.86,0,0,0-.07-2.84,3.34,3.34,0,0,0-1.1-2h0a5.68,5.68,0,0,0-1.21-.81h0l-.09,0,0,0-.07,0-.07,0-.07,0-.07,0-.09,0,0,0-.14-.05h0A7.88,7.88,0,0,0,33.82,16a6.42,6.42,0,0,0-3.33,1.47,3.34,3.34,0,0,0-1.09,2,14.77,14.77,0,0,0-.08,2.83c0,.6,0,1.17-.05,1.72-.47-.63-.79-.75-1.11-.52-.15.11-.2.46-.12.91.15.78.64,1.93.8,2.61.1.46.62,1.83,1.1,1.6A9.09,9.09,0,0,0,30.27,31c.23.56,1.17,1.08,1.7,1.6s.84,1,1.29,1.25A3.9,3.9,0,0,0,34.9,34Z"/><path class="cls-4" d="M35,34.05a4.06,4.06,0,0,0,1.72-.21c.45-.19.67-.64,1.29-1.23s1.48-1,1.71-1.58a9.55,9.55,0,0,0,.33-2.39c.49.27,1-1.13,1.12-1.59.15-.68.64-1.83.8-2.61.09-.44,0-.8-.11-.91-.32-.24-.65-.11-1.12.54,0-.55-.07-1.11,0-1.71a14.86,14.86,0,0,0-.07-2.84,3.34,3.34,0,0,0-1.1-2h0a5.68,5.68,0,0,0-1.21-.81h0l-.09,0,0,0-.07,0-.07,0-.07,0-.07,0-.09,0,0,0-.14-.05h0A7.7,7.7,0,0,0,35,15.92Z"/><path class="cls-8" d="M31.92,13.91c2.89-2,7.43.15,8.11-1.26.83,2.94-.23,2.31.39,3.2a4.48,4.48,0,0,1,1,2.5c.26,1.95-.33,4.36-1.12,7.26.14-3.16-.67-6.05-1.07-6.53-1.14-.95-7.39-1.41-8.24-.59a14.86,14.86,0,0,0-1.49,6.43c-.85-3.91-2.1-8.82,1-9.91A2.56,2.56,0,0,1,31.92,13.91Z"/><path class="cls-9" d="M35,13c2.3-.09,4.56.61,5-.35.83,2.94-.23,2.31.39,3.2a4.48,4.48,0,0,1,1,2.5c.26,1.95-.33,4.36-1.12,7.26.14-3.16-.67-6.05-1.07-6.53-.57-.47-2.38-.82-4.18-1Z"/><path class="cls-8" d="M39.73,31a9.55,9.55,0,0,0,.33-2.39.32.32,0,0,0,.38-.08l-.2-.05c-1.17.15-1.88.52-2.87-.05a9.31,9.31,0,0,0-1.19-.81,3.11,3.11,0,0,0-1.17,0,3.11,3.11,0,0,0-1.17,0,9.29,9.29,0,0,0-1.19.81c-1,.57-1.69.2-2.87.05h-.26c.13.14.27.2.41.14A9.09,9.09,0,0,0,30.27,31c.46,1.1,3.48,3.6,4.69,3.65,1.47.06,4.23-2.3,4.77-3.59ZM35,29.11c1.54.19.71.78,2.93,1-1.1,1.17-1.34,1.5-2.93,1.61-1.59-.12-1.83-.44-2.93-1.61C34.31,29.88,33.47,29.3,35,29.11Z"/><path class="cls-9" d="M39.73,31a9.55,9.55,0,0,0,.33-2.39.32.32,0,0,0,.38-.08l-.2-.05c-1.17.15-1.88.52-2.87-.05a9.31,9.31,0,0,0-1.19-.81,3.11,3.11,0,0,0-1.17,0v1.47c1.54.19.71.78,2.93,1-1.1,1.17-1.34,1.5-2.93,1.61v2.92C36.49,34.62,39.2,32.31,39.73,31Z"/><path class="cls-4" d="M27.38,36.38c-2.44,1.11-3.38-.76-5.88-2.07-1.15-.6-3.93-.76-5.69-1.35a46,46,0,0,1-9.92-4.59L4.82,11,1.2,9.65A189.45,189.45,0,0,0,0,30a5.91,5.91,0,0,0,2.65,4.64c3.56,2.52,14.58,6.5,20.43,16.18Z"/><path class="cls-4" d="M40.7,37.94c2.22,1.5,3.46-.19,6.14-1.07,1.24-.4,4-.1,5.84-.39A35.54,35.54,0,0,0,62,34L59.25,18.66l3.42-1,5.77,16.81c.82,2.79.85,3.16-3.08,5.05S49.73,45.08,42.69,51.68Z"/><path class="cls-10" d="M18,45.33c-.13-.17-3.6-3.3-5-4.36.34-2.1.53-5.78.77-9a36.34,36.34,0,0,0,5.94,1.18c3.13.47,3.5,2.3,6.05,2.59a5.33,5.33,0,0,0,2.76-.37l5.74,5.45,5.57-3.05c.24.23,1.63.1,2.3.16,1.34.13,3.23-1.25,5.23-1.56,3.27-.51,5.07-.12,7-.42.89,2.46,1.29,6.13,2.2,7.71-8.68,3-9,5.55-9.43,8.58l-3.46,14L41,78.62l-5.61.21-12.2.07,1-12.31L20.34,53.83C20.18,53.17,18.53,46.08,18,45.33Z"/><path class="cls-11" d="M18,45.33c-.13-.17-3.6-3.3-5-4.36l0-.25,1.51.46,6.67,3.45L26,66.27,24.66,78.9H23.17l1-12.31L20.34,53.83c-.16-.66-1.81-7.75-2.38-8.49ZM13.74,32h0Z"/><path class="cls-12" d="M34.26,40.86l6.14-5a7.26,7.26,0,0,0,2.45,1.05,18.37,18.37,0,0,0,4.49-.46c3.27-.51,5.07-.12,7-.42.89,2.46,1.29,6.14,2.2,7.71-8.68,3-9,5.55-9.43,8.58L44.83,66.43l2.27,12-11.79.41C35.21,66.19,35.11,53.5,34.26,40.86Z"/><path class="cls-13" d="M56.44,43.49l.13.24c-8.68,3-9,5.55-9.43,8.58L44.83,66.43l2.27,12-1.26,0L42.59,66.16,46,45.33Z"/><polygon class="cls-4" points="62.27 13.59 60.45 9.85 55.8 8.1 56.1 12.38 54.98 12.38 55.72 15.19 59.28 18.96 62.7 18.38 62.27 13.59"/><path class="cls-4" d="M56.63,13.5c-.76-1.66-.83-2.88-2.52-2.92L55.58,15l.5.53Z"/><path class="cls-7" d="M60.69,11.26,60.59,10c-.23-.39-.26-.68-.6-.78L56.61,8.1c-.4-.18-.89-.21-.94.32A11,11,0,0,0,56.29,11C56.61,11.31,60,12.08,60.69,11.26Z"/><polygon class="cls-14" points="28.5 35.35 25.84 36.29 30.03 42.7 34.23 40.91 28.5 35.35"/><polygon class="cls-14" points="40.51 35.55 42.74 36.63 38.41 42.8 34.19 40.92 40.51 35.55"/><polygon class="cls-4" points="1.21 6.51 2.92 2.33 7.83 0.11 7.8 4.76 9.02 4.68 8.42 7.79 4.83 12.13 1.08 11.74 1.21 6.51"/><path class="cls-4" d="M7.31,6C8,4.18,8,2.85,9.83,2.68L8.56,7.57l-.51.61Z"/><path class="cls-7" d="M2.76,3.88V2.53c.22-.43.24-.75.6-.89L7,.16c.42-.22.95-.29,1,.28a12,12,0,0,1-.49,2.87C7.18,3.65,3.51,4.73,2.76,3.88Z"/></g></g></svg>