<svg xmlns="http://www.w3.org/2000/svg" viewBox="0 0 72.64 111.25"><defs><style>.cls-1{fill:#ffc9b1;}.cls-1,.cls-10,.cls-11,.cls-12,.cls-13,.cls-14,.cls-2,.cls-3,.cls-4,.cls-5,.cls-6,.cls-7,.cls-8,.cls-9{fill-rule:evenodd;}.cls-2{fill:#43c3cc;}.cls-3{fill:#005b70;}.cls-4{fill:#03718a;}.cls-5{fill:#008099;}.cls-6{fill:#004757;}.cls-7{fill:#fdc2a4;}.cls-8{fill:#fc7361;}.cls-9{fill:#e56558;}.cls-10{fill:#d65749;}.cls-11{fill:#ffd6c4;}.cls-12{fill:#ff9e91;}.cls-13{fill:#320200;}.cls-14{fill:#210000;}</style></defs><title>SlideIntoDMs</title><g id="Layer_2" data-name="Layer 2"><g id="Layer_1-2" data-name="Layer 1"><path class="cls-1" d="M32.07,34c-2.14,1.62-3.46,0-6.19-.74-1.26-.34-4,.11-5.85-.07A46,46,0,0,1,9.34,30.89L4.5,14.13.68,13.64A189.52,189.52,0,0,0,4,33.78a5.91,5.91,0,0,0,3.6,4c4,1.68,16.08,5.51,23.47,11.33Z"/><path class="cls-2" d="M42.16,90.13l3.67-5.31c-1.79-1.47-1.69-3.21-3-4.11-2.77-1.89-4.73,2.54-6.2,4.07C33.56,88,31,90.54,30.26,93.49c-.29,1.18.08,1.68.64,1.77,1.29.21,2.66-1.31,3.17-2.36C38.79,89.51,40.32,89.42,42.16,90.13Z"/><path class="cls-3" d="M56.67,105.81,40.78,90.4l4.84-6L61.9,97.71l6.9,8.7C67.88,111.63,61.89,110,56.67,105.81Z"/><path class="cls-2" d="M25.14,92.21l3.67-5.31c-1.79-1.47-1.69-3.21-3-4.11-2.77-1.89-4.73,2.54-6.2,4.07-3.07,3.21-5.65,5.75-6.37,8.7-.29,1.18.08,1.68.64,1.77C15.17,97.55,16.53,96,17,95,21.77,91.58,23.3,91.49,25.14,92.21Z"/><path class="cls-4" d="M39.07,107.19,23.18,91.78l4.84-6L44.3,99.09l6.9,8.7C49.65,113.47,44.29,111.34,39.07,107.19Z"/><path class="cls-5" d="M68.8,105c.26,3.65-1.18,4.19-2.73,4.61-2.59.71-6-.84-6.23-3.1L52.32,82.17l-.78.23-.06,25.23A3.4,3.4,0,0,1,48.54,111c-2,.45-4.86-.07-5.7-2L38.35,82.45,37.14,66.51l18.69-6.1,7.65,15Z"/><path class="cls-4" d="M51.55,82.51l-.06,25.13a3.25,3.25,0,0,1-2.24,3.18,290.73,290.73,0,0,0,.56-30.08l1.73,1.77Zm-14-11.1-.37-4.9,18.69-6.1,4.56,8.94-12.7-1S41.41,70.07,37.52,71.41Z"/><path class="cls-4" d="M68.8,105c.26,3.65-1.18,4.19-2.73,4.61-2.59.71-6-.84-6.23-3.1L52.32,82.17l-.4.12c-.77-4-1.91-9-2.81-12.64q-.8-3.27-1.67-6.51l8.38-2.73,7.65,15Z"/><path class="cls-3" d="M68.8,105c.18,2.63-.51,3.64-1.49,4.16,0-5.79-3.3-21.8-5.12-31.29l-6.33-6.11,4.51-2.4,3.1,6.07Z"/><path class="cls-3" d="M44.41,75l.93-.19c-.46,1.9-4.31,6.51-6.14,7.86l-.14-.92C41.12,79.53,43.26,77.28,44.41,75Z"/><polygon class="cls-6" points="56.25 71.75 55.39 72.14 62.99 78.89 62.72 77.86 56.25 71.75"/><path class="cls-1" d="M29.63,34a17.06,17.06,0,0,0-3.93.18c-4.94,1.36-1,10.22,0,10.42,9.52,1.8,15.69.06,24.94.06,0-7.9,6.8-10.74-2.26-10.38-4-.26-5-1.62-6.88-8-2.86.06-5,2.33-7.81,2.27C34.67,32.74,33.64,33.74,29.63,34Z"/><path class="cls-7" d="M41.55,45.24c4.87-.23,3.65-2.65,8.05-2.65,0-7.9,7.89-8.67-1.17-8.31-4-.26-5-1.62-6.88-8a10.28,10.28,0,0,0-4.08,1.26l1.25,2.9c.93,2.76.73,6,1.14,7.53C40.62,40.71,40.76,42.44,41.55,45.24Z"/><path class="cls-1" d="M45.4,32.62c2.5,1,3.33-.94,5.76-2.38,1.12-.66,3.89-1,5.61-1.65a35.53,35.53,0,0,0,8.54-4.44l-6-14.39L62.41,8l9.3,15.14c1.41,2.54,1.52,2.9-1.9,5.61s-14,8.89-19.46,16.87Z"/><path class="cls-8" d="M24.29,45c-.16-.13-4.5-2.28-5.61-3.11-.12-2.13-.41-6-.87-9.18a36.38,36.38,0,0,0,6.06-.14c3.15-.23,3.92,1.48,6.47,1.21a5.33,5.33,0,0,0,2.61-1l6.79,4.07,4.87-4.79a5.3,5.3,0,0,0,2.18.26c1.34-.17,2.88-1.92,4.77-2.66,3.08-1.21,4.92-1.22,6.76-1.94,1.4,2.21,2.6,5.7,3.84,7-7.82,4.8-7.53,7.37-7.33,10.43l2.54,16.42,3.95,8.91L37.12,76.91,34.43,64.54l-5.82-12C28.32,52,25,45.63,24.29,45Z"/><path class="cls-9" d="M24.29,45c-.16-.13-4.5-2.28-5.61-3.11,0-.33,0-.23,0-.64l7.77,1.83,9.78,21.07,1.52,12.57-.62.16L34.43,64.54l-5.82-12C28.32,52,25,45.63,24.29,45Z"/><path class="cls-9" d="M39.76,36.88l4.85-4.77a5.3,5.3,0,0,0,2.18.26c1.34-.17,2.88-1.92,4.77-2.66,3.08-1.21,4.92-1.22,6.76-1.94,1.4,2.21,2.6,5.7,3.84,7-7.82,4.8-7.53,7.37-7.33,10.43l2.54,16.42,3.95,8.91L50,73.52c-.32-1.37-.63-2.69-.92-3.87C46.43,58.61,43,47.9,39.76,36.88Z"/><path class="cls-10" d="M61.79,34.36a4.61,4.61,0,0,0,.36.44c-7.82,4.8-7.53,7.37-7.33,10.43l2.54,16.42,3.95,8.91-.85.22-4.68-8.69c-1.32-7.9-3.18-14.82-2.52-22.79C56.14,37.7,59,36,61.79,34.36Z"/><polygon class="cls-1" points="61.13 4.15 58.54 0.9 53.63 0.21 54.85 4.31 53.76 4.56 55.09 7.15 59.39 10.04 62.6 8.73 61.13 4.15"/><path class="cls-1" d="M55.62,5.3c-1.1-1.45-1.44-2.62-3.09-2.3l2.39,4,.61.41Z"/><path class="cls-11" d="M59.08,2.23,58.72,1c-.3-.33-.41-.6-.76-.63L54.41,0c-.42-.09-.91,0-.85.52A11,11,0,0,0,54.74,3C55.12,3.17,58.63,3.17,59.08,2.23Z"/><polygon class="cls-12" points="32.94 32.76 30.55 34.26 36.03 39.6 39.74 36.93 32.94 32.76"/><polygon class="cls-12" points="44.6 32.07 47.24 33.07 43.86 38.84 39.7 36.95 44.6 32.07"/><path class="cls-11" d="M38,30.43h.07A4.42,4.42,0,0,0,39.91,30c.45-.26.63-.76,1.2-1.47s1.43-1.28,1.6-1.89a10.16,10.16,0,0,0,0-2.57c.55.22.92-1.33,1-1.83.07-.74.44-2,.5-2.86,0-.48-.07-.85-.24-.94-.37-.21-.7,0-1.11.71-.1-.57-.21-1.16-.27-1.8a15.79,15.79,0,0,0-.44-3,3.55,3.55,0,0,0-1.42-2h0a6,6,0,0,0-1.38-.7h0l-.1,0-.05,0-.08,0-.08,0-.08,0-.07,0-.1,0h-.05l-.16,0h0a8.37,8.37,0,0,0-4,.11,6.83,6.83,0,0,0-3.33,2,3.55,3.55,0,0,0-.89,2.28,15.71,15.71,0,0,0,.28,3c.1.63.13,1.24.17,1.82-.57-.6-.93-.69-1.23-.4-.14.14-.15.52,0,1,.26.8.93,2,1.18,2.65.17.47.89,1.85,1.37,1.55a9.66,9.66,0,0,0,.64,2.42c.32.56,1.38,1,2,1.46s1,1,1.52,1.15A4.15,4.15,0,0,0,38,30.43Z"/><path class="cls-1" d="M38.27,30.41A4,4,0,0,0,39.91,30c.45-.26.63-.76,1.2-1.47s1.43-1.28,1.6-1.89a10.16,10.16,0,0,0,0-2.57c.55.22.92-1.33,1-1.83.07-.74.44-2,.5-2.86,0-.48-.07-.84-.24-.94-.37-.21-.7,0-1.11.71-.1-.57-.21-1.16-.27-1.8a15.79,15.79,0,0,0-.44-3,3.55,3.55,0,0,0-1.42-2h0a6,6,0,0,0-1.38-.7h0l-.1,0-.05,0-.08,0-.08,0-.08,0-.07,0-.1,0h-.05l-.16,0h0a8.36,8.36,0,0,0-3.9.08l3.61,18.83Z"/><path class="cls-13" d="M42.82,13c.52,2,.22,4.65-.25,7.81-.27-3.35-1.49-6.3-2-6.76-1.33-.85-4.53,2.54-8.42,2.35-.82,1.93-1.31,3-1.08,5.07-1.41-4-3.34-8.33-.21-9.87C31.9,6.69,41.85,7.26,42.82,13Z"/><path class="cls-14" d="M42.82,13c.52,2,.22,4.64-.25,7.81-.27-3.35-1.49-6.3-2-6.76-.92-.59-2.76.87-5.09,1.75l-1.4-7.28C37.43,7.61,42.17,9.14,42.82,13Z"/><polygon class="cls-1" points="0 10.58 0.76 6.13 5.06 2.89 6.06 7.44 7.22 7.09 7.32 10.26 4.76 15.27 1.02 15.71 0 10.58"/><path class="cls-1" d="M5.85,8.77c.29-2,0-3.25,1.73-3.82l-.17,5L7,10.72Z"/><path class="cls-11" d="M.94,7.68.66,6.36c.12-.47.07-.79.39-1L4.22,3.13c.36-.3.86-.49,1.08,0a12,12,0,0,1,.15,2.91C5.2,6.49,1.86,8.34.94,7.68Z"/></g></g></svg>