<?xml version="1.0" encoding="utf-8"?>
<!-- Generator: Adobe Illustrator 21.0.0, SVG Export Plug-In . SVG Version: 6.00 Build 0)  -->
<svg version="1.1" id="Layer_1" xmlns="http://www.w3.org/2000/svg" xmlns:xlink="http://www.w3.org/1999/xlink" x="0px" y="0px"
	 viewBox="0 0 742.8 710" style="enable-background:new 0 0 742.8 710;" xml:space="preserve">
<style type="text/css">
	.st0{fill:#FFD400;}
</style>
<g id="ã_x201A__xB9_ãƒ_xBC_ãƒ_x2018_ãƒ_xBC_ã_x201A__xB9_ã_x201A__xBF_ãƒ_xBC_">
	<path class="st0" d="M741.6,269.3c-4.2-12.2-18.3-25.3-136.3-39.1c-47-5.5-93.6-9-111.7-10.2c-6.6-16.9-23.9-60.1-43.3-103
		C401.4,9.1,383.7,0,370.9,0c-12.7,0-30.5,9.1-79.8,117.2c-19.6,42.9-37.1,86.3-43.9,103c-18,1.1-64,4.4-110.5,9.6
		C19.6,243.1,5.4,256.8,1.2,268.6c-0.7,2-1.2,4.2-1.2,6.8c0,13.4,14,37.7,87.7,105.3c34.9,32,70.7,62.2,84.7,73.9
		c-4.5,17.6-15.7,62.8-25.1,109.3C136,619.2,132,652.2,132,672.5c0,22.4,4.9,29.2,10.1,33.2c10.6,7.9,29.6,10.8,133.8-48
		c41.5-23.4,81.4-48.2,96.9-58c15.3,9.7,54.8,34.2,95.8,57.3c102.9,58.2,122.6,56,132.9,49.4c6.1-3.9,11.5-10.6,11.5-34.2
		c0-20.5-4-53.6-15.1-108.6c-9.5-47.1-21-93.4-25.5-111.2c13.9-11.5,49.2-41.1,83.7-72.5c73-66.7,86.8-90.5,86.8-103.9
		C742.8,273.5,742.4,271.4,741.6,269.3"/>
</g>
</svg>
